<svg width="20" height="20" viewBox="0 0 20 20" fill="none" xmlns="http://www.w3.org/2000/svg">
<g id="Frame">
<g id="Group 18194">
<path id="Vector" d="M8.47656 3.52707C8.47656 3.7276 8.51606 3.92618 8.5928 4.11145C8.66955 4.29672 8.78203 4.46506 8.92383 4.60686C9.06563 4.74867 9.23397 4.86115 9.41925 4.93789C9.60452 5.01463 9.80309 5.05413 10.0036 5.05413C10.2042 5.05413 10.4027 5.01463 10.588 4.93789C10.7733 4.86115 10.9416 4.74867 11.0834 4.60686C11.2252 4.46506 11.3377 4.29672 11.4145 4.11145C11.4912 3.92618 11.5307 3.7276 11.5307 3.52707C11.5307 3.12206 11.3698 2.73365 11.0834 2.44727C10.797 2.16089 10.4086 2 10.0036 2C9.59863 2 9.21021 2.16089 8.92383 2.44727C8.63745 2.73365 8.47656 3.12206 8.47656 3.52707Z" fill="#646464"/>
<path id="Vector_2" d="M6.51507 7.90902L7.7958 6.62811L9.83667 4.58725L10.3043 4.11964C10.4631 3.96085 10.4749 3.66993 10.3043 3.51329C10.1337 3.35664 9.86746 3.34393 9.69792 3.51329L8.41719 4.79402L6.37633 6.83488L5.90872 7.30267C5.74993 7.46146 5.73811 7.75237 5.90872 7.90902C6.07933 8.06566 6.34554 8.07837 6.51507 7.90902Z" fill="#646464"/>
<path id="Vector_3" d="M9.70433 4.1192L10.9899 5.40458L13.0241 7.43882L13.4944 7.9084C13.6532 8.06719 13.9441 8.07901 14.1008 7.9084C14.2574 7.73779 14.2701 7.47158 14.1008 7.30205L12.8141 6.01666L10.7801 3.98242L10.3107 3.51285C10.1519 3.35405 9.86097 3.34224 9.70433 3.51285C9.54768 3.68346 9.53497 3.94966 9.70433 4.1192Z" fill="#646464"/>
<path id="Vector_4" d="M16.9328 7.00366H3.07181C2.78755 7.00366 2.51493 7.11658 2.31393 7.31759C2.11292 7.51859 2 7.79121 2 8.07547V16.9282C1.99998 17.0689 2.02768 17.2083 2.08154 17.3384C2.13539 17.4684 2.21434 17.5866 2.31387 17.6861C2.41341 17.7856 2.53157 17.8646 2.66162 17.9184C2.79167 17.9723 2.93105 18 3.07181 18H16.9328C17.0736 18 17.213 17.9723 17.343 17.9184C17.4731 17.8646 17.5912 17.7856 17.6908 17.6861C17.7903 17.5866 17.8693 17.4684 17.9231 17.3384C17.977 17.2083 18.0047 17.0689 18.0047 16.9282V8.07547C18.0047 7.79121 17.8917 7.51859 17.6907 7.31759C17.4897 7.11658 17.2171 7.00366 16.9328 7.00366ZM4.44026 10.0716H9.79896C10.0392 10.0716 10.2172 10.2685 10.2275 10.5002C10.2379 10.7318 10.0231 10.9289 9.79896 10.9289H4.44026C4.19983 10.9289 4.02189 10.732 4.0115 10.5002C4.00112 10.2683 4.21595 10.0716 4.44026 10.0716ZM11.5851 14.9279H11.5729C11.2831 14.9349 10.9923 14.9279 10.7025 14.9279H4.44026C4.19983 14.9279 4.02189 14.731 4.0115 14.4994C4.00112 14.2677 4.21595 14.0697 4.44026 14.0697H4.45261C4.74245 14.0627 5.03319 14.0697 5.32302 14.0697H11.5852C11.8257 14.0697 12.0036 14.2666 12.0149 14.4994C12.0262 14.7321 11.8094 14.9287 11.5851 14.9287V14.9279ZM15.1582 12.9291H15.1392C14.7083 12.9376 14.2761 12.9291 13.8451 12.9291H4.44026C4.19983 12.9291 4.02189 12.7322 4.0115 12.5006C4.00112 12.2689 4.21595 12.0718 4.44026 12.0718H4.45906C4.89015 12.0634 5.32213 12.0718 5.75322 12.0718H15.1582C15.3984 12.0718 15.5764 12.2687 15.5868 12.5006C15.5972 12.7324 15.3818 12.9291 15.1582 12.9291Z" fill="#646464"/>
</g>
</g>
</svg>
