<svg width="20" height="20" viewBox="0 0 20 20" fill="none" xmlns="http://www.w3.org/2000/svg">
<g id="Frame">
<path id="Vector" d="M18 3.33527V17.9834H4.68528C3.2089 17.9854 2.00839 16.7955 2.00001 15.319V4.68328C1.99893 4.33044 2.06778 3.98088 2.20258 3.6548C2.33738 3.32873 2.53547 3.03259 2.78539 2.78352C3.03513 2.53403 3.33173 2.33638 3.65812 2.20191C3.98452 2.06745 4.33428 1.99884 4.68728 2.00001H15.3359V12.657H4.70003C3.94178 12.6547 3.32477 13.2656 3.32265 14.0238V15.3022C3.32677 16.0542 3.93753 16.663 4.68953 16.6671H16.6584V3.33527H18ZM15.3336 13.988H4.66841V15.3234H15.3336V13.988Z" fill="#646464"/>
</g>
</svg>
