<svg width="20" height="20" viewBox="0 0 20 20" fill="none" xmlns="http://www.w3.org/2000/svg">
<g id="Frame">
<path id="Vector" d="M15.4733 2.00012H4.48478C4.15793 1.99692 3.83372 2.05887 3.53108 2.18235C3.22844 2.30583 2.95343 2.48837 2.72212 2.71931C2.49081 2.95025 2.30782 3.22497 2.18385 3.52741C2.05988 3.82985 1.99741 4.15396 2.00008 4.48081V5.7837C2.08514 5.82573 2.12717 5.86776 2.21023 5.90979L5.99981 9.69237L8.82174 6.87745C8.87874 6.81765 8.94729 6.77006 9.02323 6.73753C9.09917 6.70501 9.18093 6.68824 9.26354 6.68824C9.34615 6.68824 9.4279 6.70501 9.50384 6.73753C9.57979 6.77006 9.64833 6.81765 9.70534 6.87745L13.1577 10.3248L13.663 9.82045C13.8732 9.61031 14.2945 9.69437 14.3785 9.98857L15.137 12.7204C15.2211 13.0156 14.9269 13.3098 14.6317 13.2258L11.8948 12.4693C11.8229 12.4486 11.7578 12.4091 11.7062 12.3549C11.6546 12.3006 11.6183 12.2336 11.6012 12.1608C11.5841 12.0879 11.5867 12.0118 11.6087 11.9402C11.6308 11.8687 11.6715 11.8043 11.7267 11.7538L12.3571 11.1233L9.32608 8.09728L6.50516 10.9132C6.21096 11.2494 5.78967 11.2494 5.57953 10.9973L2.00008 7.46485V15.4943C2.00167 16.1525 2.26409 16.7831 2.72983 17.2481C3.19557 17.7131 3.82665 17.9745 4.48478 17.975H15.5153C16.1734 17.9745 16.8045 17.7131 17.2703 17.2481C17.736 16.7831 17.9984 16.1525 18 15.4943V4.48081C17.958 3.09286 16.8632 2.00012 15.4733 2.00012Z" fill="#646464"/>
</g>
</svg>
