<svg width="20" height="20" viewBox="0 0 20 20" fill="none" xmlns="http://www.w3.org/2000/svg">
<g id="Frame">
<path id="Vector" d="M15.2266 13.6761C14.6275 13.6761 14.096 14.1593 14.096 14.8067C14.096 15.4058 14.5791 15.9373 15.2266 15.9373C15.8257 15.9373 16.3572 15.4542 16.3572 14.8067C16.3476 14.1593 15.8644 13.6761 15.2266 13.6761ZM15.2266 17.5801C14.985 17.5801 14.7821 17.5415 14.5405 17.5028H14.5018C14.2989 17.4255 14.0573 17.2999 13.7771 17.1839C12.5692 16.6621 11.081 15.976 9.98902 15.976C9.34157 15.976 8.53951 16.2176 7.73744 16.5365C7.73744 16.4978 7.77609 16.4978 7.77609 16.4592C7.89206 16.2176 8.01768 15.976 8.09499 15.6957C8.09499 15.6571 8.13364 15.6571 8.13364 15.6184C8.17229 15.3768 8.21095 15.0966 8.21095 14.7681C8.2496 14.2849 8.32691 13.7631 8.41388 13.2412C8.97436 13.4442 9.5445 13.5601 9.97936 13.5601C11.0617 13.5601 12.5595 12.9127 13.7288 12.3908C13.9704 12.2749 14.2506 12.1493 14.4535 12.072C14.6951 11.9946 14.9367 11.9946 15.1783 11.9946C16.7438 11.9946 18 13.2412 18 14.8164C18 16.3915 16.7921 17.5801 15.2266 17.5801ZM5.78543 15.2512C6.10432 14.7294 5.90139 14.0433 5.37956 13.7244C4.85774 13.4055 4.17164 13.6084 3.85274 14.1303C3.53385 14.6521 3.73678 15.3382 4.25861 15.6571C4.78043 15.976 5.46653 15.8117 5.78543 15.2512ZM2.36457 13.2702C2.4902 13.0673 2.60616 12.8644 2.77044 12.7097V12.6711C2.97337 12.5455 3.1763 12.3908 3.36957 12.2266C4.41322 11.4632 5.74677 10.4968 6.2686 9.53047C6.58749 8.96999 6.79042 8.11961 6.91605 7.27889C6.91605 7.31755 6.9547 7.31755 6.9547 7.3562C7.07066 7.59779 7.2736 7.83937 7.43787 8.0423C7.43787 8.08096 7.47653 8.08096 7.51518 8.11961C7.71811 8.28389 7.9597 8.4385 8.20129 8.64144C8.5685 8.92168 9.00335 9.24057 9.44787 9.56913C9.00335 9.97499 8.6458 10.3712 8.40422 10.7771C7.88239 11.7047 7.67946 13.3089 7.55384 14.6038C7.51518 14.884 7.51518 15.1643 7.47653 15.3672C7.39922 15.6088 7.31225 15.8117 7.19629 16.0146C6.43288 17.3482 4.70312 17.8314 3.36957 17.0583C2.08433 16.3722 1.60116 14.6424 2.36457 13.2702ZM9.02268 6.37053C9.34157 6.89236 10.0277 7.09529 10.5495 6.77639C11.0713 6.4575 11.2743 5.7714 10.9554 5.24957C10.6365 4.72775 9.95037 4.52482 9.42854 4.84371C8.89705 5.12395 8.70378 5.81005 9.02268 6.37053ZM12.4435 4.39919C12.5595 4.60212 12.6465 4.80505 12.7238 5.04664V5.08529C12.7624 5.32688 12.7624 5.56847 12.8011 5.84871C12.9654 7.13394 13.12 8.78639 13.6515 9.71408C13.9704 10.2746 14.5791 10.8834 15.2653 11.4052H15.1879C14.9077 11.4052 14.6275 11.4438 14.3376 11.5308C14.2989 11.5308 14.2989 11.5308 14.2603 11.5695C14.0187 11.6468 13.7771 11.7724 13.4968 11.8883C13.0523 12.0913 12.5692 12.2942 12.0473 12.4875C11.9217 11.927 11.7671 11.3569 11.5255 10.9607C11.0037 10.033 9.67013 9.06663 8.62648 8.30322C8.38489 8.13894 8.18196 7.98432 7.97903 7.82005C7.81475 7.65577 7.65047 7.45283 7.53451 7.25957C6.7711 5.93568 7.21562 4.19626 8.57816 3.43285C9.95037 2.58247 11.6801 3.02698 12.4435 4.39919Z" fill="#646464"/>
</g>
</svg>
