<svg width="20" height="20" viewBox="0 0 20 20" fill="none" xmlns="http://www.w3.org/2000/svg">
<g id="Frame">
<g id="Frame_2" clip-path="url(#clip0_1669_17964)">
<path id="Vector" d="M12.915 13.5095V13.2285H13.7865V12.5309H12.8936V11.6071C13.2031 11.5404 13.4865 11.4714 13.7698 11.4023L13.515 10.7285C12.7484 10.9595 11.9603 11.0999 11.165 11.1595L11.3317 11.819C11.6436 11.7904 11.9055 11.7523 12.1865 11.7214V12.5309H11.165V13.2285H12.1055C11.8603 13.9309 11.465 14.5761 10.9531 15.1142L11.2627 15.8785C11.6341 15.3952 11.946 14.8666 12.1865 14.3047V17.1904H12.915V14.2523C13.0674 14.4642 13.2555 14.7214 13.4817 15.0476L13.8888 14.4261C13.5579 14.0904 13.2388 13.788 12.915 13.5095Z" fill="#646464"/>
<path id="Vector_2" d="M16.99 16.2788V10.9454H14.0972V16.2788H13.5067V16.9812H17.5281V16.2788H16.99V16.2788ZM16.2615 16.2788H14.8139V15.1669H16.2615V16.2788ZM16.2615 14.4764H14.8139V13.3692H16.2615V14.4764ZM16.2615 12.6811H14.8139V11.6002H16.2615V12.6811ZM11.5877 8.84781C11.5424 9.024 11.4996 9.1859 11.4543 9.33114C11.4056 9.45944 11.3499 9.58501 11.2877 9.70732C11.2329 9.81686 11.1615 9.91446 11.0734 9.99779C10.9853 10.0597 10.9115 10.1502 10.8662 10.2478C10.8258 10.3359 10.7948 10.4288 10.7662 10.5216C10.7377 10.6192 10.7067 10.7169 10.6758 10.8121C10.64 10.9121 10.5877 11.0097 10.5091 11.1121C10.2758 11.4049 10.0829 11.7311 9.93528 12.0764C9.81623 12.3645 9.72337 12.6668 9.66623 12.9764C9.61623 13.2597 9.60433 13.5478 9.62576 13.8311C9.6472 14.1145 9.69242 14.3883 9.75909 14.6549C9.80778 14.8672 9.87388 15.075 9.95672 15.2764C10.0448 15.493 10.1734 15.7145 10.3472 15.943C10.5186 16.1692 10.7377 16.3907 11.0043 16.6097C11.2686 16.824 11.6043 17.0335 12.002 17.2311C11.7329 17.2883 11.4258 17.3359 11.071 17.3788C10.2043 17.4692 9.3329 17.5145 8.45909 17.5121C8.171 17.5121 7.83767 17.5026 7.45195 17.4764C7.05672 17.4549 6.66623 17.4264 6.27337 17.3954C5.86862 17.3597 5.46862 17.324 5.07814 17.2788C4.6829 17.2335 4.32337 17.1883 3.99958 17.1359C3.71862 17.0954 3.44481 17.0407 3.16623 16.9788C2.94004 16.9216 2.79718 16.874 2.74242 16.8311C2.64481 16.743 2.56623 16.4978 2.50909 16.0907C2.45195 15.6859 2.471 15.1573 2.55909 14.5049C2.61623 14.1383 2.76148 13.8573 2.99956 13.6669C3.23528 13.474 3.51623 13.3192 3.83767 13.2097C4.15909 13.1002 4.49481 12.9954 4.84481 12.9049C5.16862 12.8192 5.4829 12.6907 5.76862 12.5145C5.98053 12.3811 6.14004 12.2597 6.25195 12.1383C6.36148 12.0216 6.44004 11.9049 6.48528 11.7811C6.53053 11.6621 6.55195 11.5311 6.55195 11.4002C6.55195 11.2692 6.54481 11.1216 6.5329 10.9692C6.51148 10.7359 6.4329 10.5526 6.29244 10.4192C6.14958 10.2835 6.00195 10.1478 5.85433 10.0192C5.75433 9.94065 5.67339 9.8359 5.621 9.71923C5.55909 9.59542 5.50195 9.46686 5.45433 9.33829C5.39479 9.18114 5.34958 9.01923 5.321 8.85495C5.24481 8.83351 5.16862 8.79781 5.10433 8.75495C5.03528 8.69542 4.97576 8.62876 4.921 8.55732C4.84006 8.43351 4.77576 8.29779 4.73767 8.15732C4.6829 8.00971 4.66623 7.84779 4.68053 7.69065C4.69958 7.54781 4.72814 7.42637 4.771 7.324C4.81623 7.20018 4.87576 7.09781 4.95433 7.00971C4.95433 6.63351 4.97576 6.25495 5.021 5.88114C5.06623 5.55971 5.13528 5.21446 5.22814 4.85018C5.321 4.4859 5.47337 4.15732 5.68528 3.86923C5.8829 3.59065 6.09958 3.36446 6.32575 3.18829C6.55195 3.01209 6.79004 2.874 7.0329 2.77161C7.27576 2.67161 7.521 2.60018 7.76384 2.56446C8.00672 2.52637 8.24004 2.50732 8.46148 2.50732C8.75195 2.50732 9.02576 2.53828 9.29481 2.60732C9.55909 2.674 9.80909 2.76209 10.0329 2.87161C10.2638 2.98114 10.4615 3.10732 10.6377 3.24781C10.8139 3.38829 10.9591 3.52875 11.0686 3.67161C11.3234 3.99304 11.5067 4.34542 11.6258 4.73351C11.7424 5.12161 11.8281 5.48828 11.8805 5.83114C11.9377 6.23114 11.9591 6.62876 11.9472 7.02637C12.0139 7.08351 12.071 7.15018 12.1139 7.224C12.1591 7.29065 12.1924 7.37876 12.2139 7.49304C12.2353 7.63111 12.2353 7.77165 12.2139 7.90971C12.1924 8.12161 12.1472 8.2859 12.0805 8.40732C12.0263 8.51356 11.9528 8.60882 11.8639 8.68828C11.79 8.75495 11.6948 8.81209 11.5877 8.84781Z" fill="#646464"/>
</g>
</g>
<defs>
<clipPath id="clip0_1669_17964">
<rect width="16" height="16" fill="white" transform="translate(2 2)"/>
</clipPath>
</defs>
</svg>
