<svg width="20" height="20" viewBox="0 0 20 20" fill="none" xmlns="http://www.w3.org/2000/svg">
<g id="Frame">
<path id="Vector" d="M9.39996 10.525C10.9962 10.069 12.1689 8.60306 12.1689 6.84396C12.1689 4.72652 10.4424 3 8.32496 3C6.20752 3 4.481 4.72652 4.481 6.84396C4.481 8.60306 5.65373 10.069 7.24995 10.525C4.70903 11.0137 2.65675 13.0985 2.03781 15.8349C1.84235 16.7145 2.42872 17.594 3.24312 17.594H13.3742C14.1886 17.594 14.775 16.747 14.5795 15.8675C13.9606 13.0985 11.9409 11.0137 9.39996 10.525ZM13.081 5.8341H17.4788C17.7394 5.8341 17.9674 5.60607 17.9674 5.34546C17.9674 5.08486 17.7394 4.85683 17.4788 4.85683H13.081C12.8204 4.85683 12.5924 5.08486 12.5924 5.34546C12.5924 5.60607 12.8204 5.8341 13.081 5.8341ZM17.5114 8.70078H14.1235C13.8629 8.70078 13.6348 8.92881 13.6348 9.18942C13.6348 9.45003 13.8629 9.67806 14.1235 9.67806H17.5114C17.772 9.67806 18 9.45003 18 9.18942C18 8.92881 17.772 8.70078 17.5114 8.70078ZM17.5114 12.5773H15.4917C15.231 12.5773 15.003 12.8053 15.003 13.066C15.003 13.3266 15.231 13.5546 15.4917 13.5546H17.5114C17.772 13.5546 18 13.3266 18 13.066C18 12.8053 17.772 12.5773 17.5114 12.5773Z" fill="#646464"/>
</g>
</svg>
