<svg width="20" height="20" viewBox="0 0 20 20" fill="none" xmlns="http://www.w3.org/2000/svg">
<g id="Frame">
<g id="Group 18465">
<path id="Vector" d="M5.8548 10.8696H9.63198C12.8089 10.8696 15.3892 13.4898 15.3892 16.7231V17.1065C15.3892 17.3893 15.2494 17.6071 14.9745 17.7804C14.6948 17.9567 14.2814 18.0817 13.7557 18.1681C12.7055 18.3408 11.2505 18.3535 9.63198 18.3535H5.8548C4.23455 18.3535 2.77994 18.3527 1.72991 18.1859C1.20439 18.1025 0.791685 17.9789 0.512537 17.8008C0.238736 17.6261 0.0976562 17.4027 0.0976562 17.1065V16.7231C0.0976562 13.4898 2.67779 10.8696 5.8548 10.8696ZM7.7434 9.97557C5.27011 9.97557 3.2665 7.98743 3.2665 5.53661C3.2665 3.08587 5.27013 1.09766 7.7434 1.09766C10.2167 1.09766 12.2202 3.08587 12.2202 5.53661C12.2202 7.98743 10.2167 9.97557 7.7434 9.97557Z" fill="#646464" stroke="#646464" stroke-width="0.195312"/>
<g id="Group 18464">
<path id="Line 14" d="M13.8672 4.65234H19.1995" stroke="#646464" stroke-width="1.2" stroke-linecap="round"/>
<path id="Line 15" d="M15.0508 9.25781H18.9288" stroke="#646464" stroke-width="1.2" stroke-linecap="round"/>
<path id="Line 16" d="M16.5312 13.918H18.955" stroke="#646464" stroke-width="1.2" stroke-linecap="round"/>
</g>
</g>
</g>
</svg>
