<svg xmlns="http://www.w3.org/2000/svg" width="20" height="20" viewBox="0 0 20 20" fill="none">
<g id="Frame" clip-path="url(#clip0_365_29060)">
<path id="Vector" d="M18.941 17.6H1.07C0.486 17.6 0.011 18.14 0.011 18.8C0.011 19.46 0.486 20 1.07 20H18.94C19.524 20 19.999 19.46 19.999 18.8C19.999 18.14 19.524 17.6 18.94 17.6H18.941ZM2.631 16.22H17.36C19.03 16.22 19.99 15.425 19.99 13.437V2.43C19.99 1.09 18.81 0 17.36 0H2.63C1.181 0 0 1.09 0 2.43V13.8C0 15.13 1.18 16.22 2.631 16.22ZM4.382 9.174L8.745 6.264C8.815 6.214 8.896 6.174 8.987 6.154C9.15984 6.04882 9.36612 6.01303 9.56429 6.05386C9.76246 6.09468 9.9378 6.20907 10.055 6.374L11.566 8.604L15.254 6.144C15.4444 6.01854 15.6763 5.97238 15.9002 6.01534C16.1242 6.0583 16.3225 6.18699 16.453 6.374C16.5793 6.56278 16.6258 6.79388 16.5824 7.01684C16.5389 7.23979 16.409 7.43649 16.221 7.564L11.858 10.474C11.7503 10.5436 11.6287 10.5887 11.5016 10.6059C11.3746 10.6232 11.2453 10.6123 11.123 10.574C10.9154 10.5348 10.7311 10.4165 10.609 10.244L9.118 8.074L5.339 10.594C5.14858 10.7195 4.91671 10.7656 4.69276 10.7227C4.46881 10.6797 4.27048 10.551 4.14 10.364C4.01543 10.1738 3.97097 9.94206 4.01628 9.71923C4.0616 9.49641 4.19302 9.30047 4.382 9.174Z" fill="#646464"/>
</g>
<defs>
<clipPath id="clip0_365_29060">
<rect width="20" height="20" fill="white"/>
</clipPath>
</defs>
</svg>
