<svg width="20" height="20" viewBox="0 0 20 20" fill="none" xmlns="http://www.w3.org/2000/svg">
<g id="Frame">
<path id="Vector" d="M16.1449 13.994H3.84708C2.86357 13.994 2 13.2344 2 12.3548V3.63118C2 2.75962 2.86357 2 3.84708 2H16.1529C17.1364 2 18 2.75962 18 3.63918V12.3628C17.992 13.2264 17.1284 13.994 16.1449 13.994ZM8.31684 11.931C8.56472 11.931 8.93253 11.6832 8.93253 11.3153V7.62119C8.93253 7.25337 8.68466 7.0055 8.31684 7.0055C7.94903 7.0055 7.70115 7.25337 7.70115 7.62119V11.3153C7.70115 11.6832 7.94903 11.931 8.31684 11.931ZM11.0275 11.931C11.3953 11.931 11.6432 11.6832 11.6432 11.3153V9.46827C11.6432 9.10045 11.3953 8.85257 11.0275 8.85257C10.6597 8.85257 10.4118 9.10045 10.4118 9.46827V11.3153C10.4118 11.6832 10.6517 11.931 11.0275 11.931ZM13.7301 11.931C14.098 11.931 14.3458 11.6832 14.3458 11.3153V10.6996C14.3458 10.3318 14.098 10.084 13.7301 10.084C13.3623 10.084 13.1144 10.3318 13.1144 10.6996V11.3153C13.1144 11.6832 13.3623 11.931 13.7301 11.931ZM5.61419 11.931C5.86207 11.931 6.22989 11.6832 6.22989 11.3153V5.77411C6.22989 5.4063 5.98201 5.15842 5.61419 5.15842C5.24638 5.15842 4.9985 5.4063 4.9985 5.77411V11.3073C4.9985 11.6832 5.23838 11.931 5.61419 11.931ZM5.998 15.1374H13.994C14.6257 15.1374 15.1374 15.6492 15.1374 16.2809C15.1374 16.9125 14.6257 17.4243 13.994 17.4243H5.998C5.36632 17.4243 4.85457 16.9125 4.85457 16.2809C4.85457 15.6492 5.36632 15.1374 5.998 15.1374Z" fill="#646464"/>
</g>
</svg>
