<svg width="20" height="20" viewBox="0 0 20 20" fill="none" xmlns="http://www.w3.org/2000/svg">
<g id="_&#233;&#141;&#165;&#230;&#131;&#167;&#231;&#156;&#176;_1" clip-path="url(#clip0_375_9554)">
<path id="Vector" d="M18.5731 0.714355H8.5731C7.78412 0.714355 7.14453 1.35395 7.14453 2.14293V3.5715C7.14453 4.36048 7.78412 5.00007 8.5731 5.00007H18.5731C19.3621 5.00007 20.0017 4.36048 20.0017 3.5715V2.14293C20.0017 1.35395 19.3621 0.714355 18.5731 0.714355Z" fill="#409EFF"/>
<path id="Vector_2" d="M18.5731 7.85742H8.5731C7.78412 7.85742 7.14453 8.49701 7.14453 9.28599V10.7146C7.14453 11.5035 7.78412 12.1431 8.5731 12.1431H18.5731C19.3621 12.1431 20.0017 11.5035 20.0017 10.7146V9.28599C20.0017 8.49701 19.3621 7.85742 18.5731 7.85742Z" fill="#F9C057"/>
<path id="Vector_3" d="M18.5731 15H8.5731C7.78412 15 7.14453 15.6396 7.14453 16.4286V17.8571C7.14453 18.6461 7.78412 19.2857 8.5731 19.2857H18.5731C19.3621 19.2857 20.0017 18.6461 20.0017 17.8571V16.4286C20.0017 15.6396 19.3621 15 18.5731 15Z" fill="#FF6D6D"/>
<path id="Vector_4" d="M2.85714 0.714355H1.42857C0.639593 0.714355 0 1.35395 0 2.14293V3.5715C0 4.36048 0.639593 5.00007 1.42857 5.00007H2.85714C3.64612 5.00007 4.28571 4.36048 4.28571 3.5715V2.14293C4.28571 1.35395 3.64612 0.714355 2.85714 0.714355Z" fill="#409EFF"/>
<path id="Vector_5" d="M2.85714 7.85742H1.42857C0.639593 7.85742 0 8.49701 0 9.28599V10.7146C0 11.5035 0.639593 12.1431 1.42857 12.1431H2.85714C3.64612 12.1431 4.28571 11.5035 4.28571 10.7146V9.28599C4.28571 8.49701 3.64612 7.85742 2.85714 7.85742Z" fill="#F9C057"/>
<path id="Vector_6" d="M2.85714 15H1.42857C0.639593 15 0 15.6396 0 16.4286V17.8571C0 18.6461 0.639593 19.2857 1.42857 19.2857H2.85714C3.64612 19.2857 4.28571 18.6461 4.28571 17.8571V16.4286C4.28571 15.6396 3.64612 15 2.85714 15Z" fill="#FF6D6D"/>
</g>
<defs>
<clipPath id="clip0_375_9554">
<rect width="20" height="18.5714" fill="white" transform="translate(0 0.714355)"/>
</clipPath>
</defs>
</svg>
