<svg width="20" height="20" viewBox="0 0 20 20" fill="none" xmlns="http://www.w3.org/2000/svg">
<g id="Frame">
<path id="Vector" d="M17.1528 16.08H2.856C2.3888 16.08 2.0088 16.512 2.0088 17.04C2.0088 17.568 2.3888 18 2.856 18H17.152C17.6192 18 17.9992 17.568 17.9992 17.04C17.9992 16.512 17.6192 16.08 17.152 16.08H17.1528ZM4.1048 14.976H15.888C17.224 14.976 17.992 14.34 17.992 12.7496V3.944C17.992 2.872 17.048 2 15.888 2H4.104C2.9448 2 2 2.872 2 3.944V13.04C2 14.104 2.944 14.976 4.1048 14.976ZM5.5056 9.3392L8.996 7.0112C9.052 6.9712 9.1168 6.9392 9.1896 6.9232C9.32787 6.83905 9.4929 6.81043 9.65143 6.84308C9.80997 6.87574 9.95024 6.96726 10.044 7.0992L11.2528 8.8832L14.2032 6.9152C14.3555 6.81484 14.541 6.7779 14.7202 6.81227C14.8994 6.84664 15.058 6.94959 15.1624 7.0992C15.2635 7.25023 15.3007 7.43511 15.2659 7.61347C15.2311 7.79183 15.1272 7.94919 14.9768 8.0512L11.4864 10.3792C11.4003 10.4349 11.3029 10.4709 11.2013 10.4848C11.0997 10.4986 10.9963 10.4899 10.8984 10.4592C10.7323 10.4278 10.5849 10.3332 10.4872 10.1952L9.2944 8.4592L6.2712 10.4752C6.11887 10.5756 5.93337 10.6125 5.75421 10.5781C5.57505 10.5438 5.41638 10.4408 5.312 10.2912C5.21234 10.139 5.17677 9.95365 5.21303 9.77539C5.24928 9.59712 5.35442 9.44037 5.5056 9.3392Z" fill="#646464"/>
</g>
</svg>
