<svg width="20" height="20" viewBox="0 0 20 20" fill="none" xmlns="http://www.w3.org/2000/svg">
<g id="Frame">
<path id="Vector" d="M17.2934 13.4165H16.2836V11.1632C16.2836 10.5405 15.7519 10.0338 15.1007 10.0338H10.5512V7.70915H12.1694C12.5619 7.70915 12.8831 7.38801 12.8831 6.9955V2.71364C12.8831 2.32114 12.5619 2 12.1694 2H7.88756C7.49505 2 7.17391 2.32114 7.17391 2.71364V6.9955C7.17391 7.38801 7.49505 7.70915 7.88756 7.70915H9.44508V10.0338H4.92237C4.26939 10.0338 3.73951 10.5405 3.73951 11.1632V13.4165H2.71364C2.32114 13.4165 2 13.7377 2 14.1302V17.2702C2 17.6627 2.32114 17.9838 2.71364 17.9838H5.85367C6.24618 17.9838 6.56732 17.6627 6.56732 17.2702V14.1302C6.56732 13.7377 6.24618 13.4165 5.85367 13.4165H4.84387V11.1703C4.85101 11.1596 4.87777 11.14 4.92059 11.14H9.4433V13.4165H8.43885C8.04634 13.4165 7.7252 13.7377 7.7252 14.1302V17.2702C7.7252 17.6627 8.04634 17.9838 8.43885 17.9838H11.5789C11.9714 17.9838 12.2925 17.6627 12.2925 17.2702V14.1302C12.2925 13.7377 11.9714 13.4165 11.5789 13.4165H10.5477V11.14H15.0954C15.1382 11.14 15.1649 11.1596 15.1721 11.1703V13.4165H14.1462C13.7537 13.4165 13.4326 13.7377 13.4326 14.1302V17.2702C13.4326 17.6627 13.7537 17.9838 14.1462 17.9838H17.2862C17.6787 17.9838 17.9999 17.6627 17.9999 17.2702V14.1302C18.007 13.7377 17.6859 13.4165 17.2934 13.4165Z" fill="#646464"/>
</g>
</svg>
