<svg width="20" height="20" viewBox="0 0 20 20" fill="none" xmlns="http://www.w3.org/2000/svg">
<g id="Frame">
<g id="Frame_2" clip-path="url(#clip0_1669_18496)">
<path id="Vector" d="M14.6133 16.0005H15.0398V16.907H14.6133V16.0005ZM15.2531 15.6273H15.6797V16.907H15.2531V15.6273ZM15.893 16.1072H16.3195V16.907H15.893V16.1072ZM16.5328 15.414H16.9594V16.907H16.5328V15.414Z" fill="#646464"/>
<path id="Vector_2" d="M17.038 15.1207L16.8247 14.9074L16.1848 15.5473C16.1582 15.5739 16.1049 15.5739 16.0515 15.5473L15.385 15.0674L14.6919 15.7606L14.5586 15.6273L15.3051 14.8808C15.3317 14.8541 15.3851 14.8541 15.4384 14.8808L16.1049 15.3607L16.6647 14.8008L16.4248 14.5342H17.038V15.1207Z" fill="#646464"/>
<path id="Vector_3" d="M15.7336 17.9733C14.5073 17.9733 13.5209 16.9869 13.5209 15.7606C13.5475 14.5342 14.5073 13.5745 15.7336 13.5745C16.1602 13.5745 16.5601 13.7078 16.9067 13.8944C15.8403 12.1348 14.1341 10.8285 12.1079 10.2686C13.5475 9.4955 14.5073 7.94923 14.4273 6.18968C14.3207 3.95025 12.4811 2.11072 10.2151 2.00408C7.6557 1.89744 5.57623 3.89693 5.57623 6.40296C5.57623 8.08253 6.50933 9.52216 7.89564 10.2686C5.12302 11.0151 2.93691 13.2012 2.21709 16.0005C1.95049 17.0136 2.72363 18 3.76336 18H16.2135C17.12 18 17.7865 17.2802 17.8131 16.4537C17.5465 17.3335 16.7201 17.9733 15.7336 17.9733Z" fill="#646464"/>
</g>
</g>
<defs>
<clipPath id="clip0_1669_18496">
<rect width="16" height="16" fill="white" transform="translate(2 2)"/>
</clipPath>
</defs>
</svg>
