<svg width="20" height="20" viewBox="0 0 20 20" fill="none" xmlns="http://www.w3.org/2000/svg">
<g id="Frame">
<path id="Vector" d="M2.19999 8.31992H3.65265C3.67768 8.32171 3.70282 8.31843 3.72656 8.31028C3.7503 8.30214 3.77215 8.2893 3.79082 8.27252C3.80949 8.25574 3.82458 8.23537 3.8352 8.21263C3.84582 8.18989 3.85175 8.16524 3.85264 8.14016V7.93311C3.85175 7.90803 3.84582 7.88338 3.8352 7.86064C3.82458 7.8379 3.80949 7.81753 3.79082 7.80075C3.77215 7.78398 3.7503 7.77113 3.72656 7.76299C3.70282 7.75484 3.67768 7.75157 3.65265 7.75335H2.19999C2.17492 7.75157 2.14974 7.75486 2.12597 7.76303C2.1022 7.7712 2.08033 7.78409 2.06165 7.80092C2.04298 7.81775 2.02789 7.83817 2.0173 7.86096C2.00671 7.88376 2.00082 7.90846 2 7.93358V8.14016C2.00088 8.16524 2.00681 8.18989 2.01744 8.21263C2.02806 8.23537 2.04315 8.25574 2.06182 8.27252C2.08048 8.2893 2.10234 8.30214 2.12608 8.31028C2.14982 8.31843 2.17496 8.32171 2.19999 8.31992ZM2.19999 11.1796H3.65265C3.67806 11.1805 3.70342 11.1764 3.72725 11.1675C3.75107 11.1586 3.77291 11.1451 3.7915 11.1278C3.81009 11.1104 3.82506 11.0895 3.83555 11.0664C3.84604 11.0432 3.85185 11.0182 3.85264 10.9928V10.7928C3.85264 10.7671 3.84736 10.7418 3.83713 10.7182C3.8269 10.6947 3.81194 10.6736 3.79318 10.6561C3.77441 10.6386 3.75226 10.6252 3.72808 10.6166C3.7039 10.6081 3.67822 10.6046 3.65265 10.6064H2.19999C2.17441 10.6046 2.14874 10.6081 2.12456 10.6166C2.10038 10.6252 2.07822 10.6386 2.05946 10.6561C2.0407 10.6736 2.02574 10.6947 2.01551 10.7182C2.00528 10.7418 2 10.7671 2 10.7928V10.9928C2.00079 11.0182 2.0066 11.0432 2.01709 11.0664C2.02758 11.0895 2.04255 11.1104 2.06114 11.1278C2.07973 11.1451 2.10156 11.1586 2.12539 11.1675C2.14922 11.1764 2.17458 11.1805 2.19999 11.1796ZM2.19999 5.46685H3.65265C3.67802 5.46779 3.70334 5.46371 3.72714 5.45485C3.75094 5.44599 3.77276 5.43252 3.79134 5.4152C3.80992 5.39789 3.8249 5.37708 3.83542 5.35396C3.84594 5.33085 3.85179 5.30588 3.85264 5.2805V5.08051C3.85264 5.05487 3.84736 5.0295 3.83713 5.00598C3.8269 4.98247 3.81194 4.96131 3.79318 4.94383C3.77441 4.92635 3.75226 4.91292 3.72808 4.90438C3.7039 4.89583 3.67822 4.89235 3.65265 4.89416H2.19999C2.17441 4.89235 2.14874 4.89583 2.12456 4.90438C2.10038 4.91292 2.07822 4.92635 2.05946 4.94383C2.0407 4.96131 2.02574 4.98247 2.01551 5.00598C2.00528 5.0295 2 5.05487 2 5.08051V5.2805C2.00079 5.30592 2.0066 5.33094 2.01709 5.35411C2.02758 5.37728 2.04255 5.39814 2.06114 5.41551C2.07973 5.43287 2.10156 5.44639 2.12539 5.45528C2.14922 5.46417 2.17458 5.46826 2.19999 5.46732V5.46685ZM3.85311 13.8458V13.6458C3.85232 13.6204 3.84651 13.5954 3.83602 13.5722C3.82553 13.5491 3.81056 13.5282 3.79197 13.5108C3.77338 13.4935 3.75155 13.48 3.72772 13.4711C3.70389 13.4622 3.67853 13.4581 3.65312 13.459H2.19999C2.17458 13.4581 2.14922 13.4622 2.12539 13.4711C2.10156 13.48 2.07973 13.4935 2.06114 13.5108C2.04255 13.5282 2.02758 13.5491 2.01709 13.5722C2.0066 13.5954 2.00079 13.6204 2 13.6458V13.8458C2 13.8715 2.00528 13.8968 2.01551 13.9204C2.02574 13.9439 2.0407 13.965 2.05946 13.9825C2.07822 14 2.10038 14.0134 2.12456 14.022C2.14874 14.0305 2.17441 14.034 2.19999 14.0322H3.65265C3.67822 14.034 3.7039 14.0305 3.72808 14.022C3.75226 14.0134 3.77441 14 3.79318 13.9825C3.81194 13.965 3.8269 13.9439 3.83713 13.9204C3.84736 13.8968 3.85264 13.8715 3.85264 13.8458H3.85311ZM16.5171 3.14082H15.4372C15.3999 3.14163 15.3636 3.12944 15.3344 3.10633C15.3052 3.08323 15.2849 3.05065 15.2772 3.01423C15.2319 2.72599 15.0831 2.46414 14.8587 2.27766C14.6342 2.09118 14.3496 1.99286 14.0579 2.00109H3.71947C3.54383 1.99398 3.36852 2.02167 3.20363 2.08257C3.03873 2.14348 2.88751 2.23639 2.75867 2.35596C2.62982 2.47553 2.5259 2.61941 2.45287 2.7793C2.37985 2.9392 2.33916 3.11195 2.33316 3.28763V4.14125C2.33314 4.1611 2.33715 4.18074 2.34494 4.199C2.35272 4.21725 2.36413 4.23374 2.37847 4.24747C2.39281 4.26119 2.40978 4.27186 2.42836 4.27884C2.44694 4.28582 2.46674 4.28896 2.48657 4.28807H3.40654C3.81593 4.26924 4.16463 4.58453 4.18627 4.99439V5.4212C4.17216 5.7506 3.8964 6.00847 3.56653 6.00095H2.48657C2.4477 5.99916 2.40971 6.01287 2.38094 6.03908C2.35218 6.06528 2.33499 6.10184 2.33316 6.14071V6.99432C2.33321 7.01413 2.33726 7.03372 2.34507 7.05192C2.35289 7.07013 2.36431 7.08656 2.37864 7.10023C2.39297 7.1139 2.40992 7.12453 2.42847 7.13148C2.44702 7.13843 2.46678 7.14156 2.48657 7.14067H3.40654C3.50514 7.13619 3.60365 7.15132 3.69637 7.18517C3.78909 7.21903 3.87417 7.27094 3.94669 7.3379C4.0192 7.40486 4.07772 7.48554 4.11885 7.57527C4.15997 7.665 4.18289 7.762 4.18627 7.86064V8.14063C4.17771 8.33928 4.09091 8.52648 3.94483 8.66136C3.79875 8.79625 3.60524 8.86787 3.40654 8.86061H2.48657C2.4477 8.85882 2.40971 8.87253 2.38094 8.89874C2.35218 8.92494 2.33499 8.9615 2.33316 9.00037V9.85351C2.33314 9.87336 2.33715 9.893 2.34494 9.91126C2.35272 9.92952 2.36413 9.946 2.37847 9.95973C2.39281 9.97345 2.40978 9.98412 2.42836 9.9911C2.44694 9.99808 2.46674 10.0012 2.48657 10.0003H3.41265C3.8197 9.98904 4.16086 10.3062 4.17921 10.7132V11.1401C4.17224 11.298 4.10317 11.4469 3.98702 11.5542C3.87088 11.6616 3.71705 11.7187 3.559 11.7132H2.4861C2.46595 11.7123 2.44582 11.7154 2.42687 11.7223C2.40792 11.7292 2.39052 11.7398 2.37566 11.7534C2.3608 11.7671 2.34877 11.7835 2.34027 11.8018C2.33176 11.8201 2.32695 11.8399 2.32611 11.86V12.7132C2.32794 12.7538 2.34582 12.792 2.37582 12.8195C2.40582 12.8469 2.44548 12.8613 2.4861 12.8595H3.40607C3.50326 12.8559 3.60021 12.8716 3.69137 12.9055C3.78252 12.9394 3.86609 12.991 3.93729 13.0572C4.0085 13.1235 4.06593 13.2031 4.10631 13.2916C4.14669 13.3801 4.16923 13.4757 4.17263 13.5729V13.9992C4.16577 14.1555 4.09743 14.3028 3.9825 14.4089C3.86756 14.515 3.71534 14.5714 3.559 14.5658H2.47998C2.43974 14.5657 2.40092 14.5807 2.37126 14.6079C2.34161 14.6351 2.3233 14.6725 2.31999 14.7126V16.7126C2.32603 16.8888 2.36697 17.062 2.44043 17.2223C2.5139 17.3826 2.61843 17.5267 2.74798 17.6463C2.87752 17.766 3.02951 17.8587 3.19514 17.9192C3.36076 17.9796 3.53674 18.0066 3.71288 17.9986H16.3774C16.553 18.0057 16.7283 17.978 16.8932 17.9171C17.0581 17.8562 17.2093 17.7633 17.3382 17.6438C17.467 17.5242 17.5709 17.3803 17.644 17.2204C17.717 17.0605 17.7577 16.8878 17.7637 16.7121V4.2876C17.7577 4.13024 17.7207 3.97562 17.6547 3.83265C17.5888 3.68967 17.4951 3.56117 17.3792 3.45456C17.2634 3.34795 17.1275 3.26534 16.9796 3.21149C16.8316 3.15764 16.6744 3.13362 16.5171 3.14082ZM6.7923 9.99986C6.67205 9.99986 6.55672 9.95209 6.4717 9.86706C6.38667 9.78203 6.3389 9.66671 6.3389 9.54646C6.3389 9.42622 6.38667 9.31089 6.4717 9.22586C6.55672 9.14084 6.67205 9.09307 6.7923 9.09307H8.08542L6.61913 7.09361C6.57017 7.05299 6.53076 7.00207 6.50372 6.94449C6.47667 6.8869 6.46265 6.82407 6.46265 6.76045C6.46265 6.69683 6.47667 6.63399 6.50372 6.57641C6.53076 6.51882 6.57017 6.46791 6.61913 6.42728C6.71075 6.34533 6.82936 6.30003 6.95229 6.30003C7.07522 6.30003 7.19383 6.34533 7.28545 6.42728C7.31778 6.4581 7.34481 6.49403 7.36545 6.53363L8.96539 8.70014L10.5715 6.53363C10.6631 6.45155 10.7818 6.40616 10.9049 6.40616C11.0279 6.40616 11.1466 6.45155 11.2382 6.53363C11.3902 6.66727 11.4312 6.8875 11.338 7.06679L9.87171 9.06672H11.1648C11.285 9.06672 11.4003 9.11446 11.4853 9.19944C11.5703 9.28443 11.618 9.39969 11.618 9.51988C11.618 9.64006 11.5703 9.75532 11.4853 9.84031C11.4003 9.92529 11.285 9.97304 11.1648 9.97304H9.5649V10.493H11.2251C11.2851 10.4913 11.3449 10.5015 11.401 10.523C11.4571 10.5446 11.5083 10.5771 11.5517 10.6187C11.5951 10.6602 11.6298 10.71 11.6538 10.7651C11.6778 10.8202 11.6906 10.8795 11.6914 10.9396C11.6878 11.0633 11.6353 11.1806 11.5453 11.2656C11.4552 11.3505 11.3352 11.3963 11.2114 11.3927H9.56537V12.3127C9.56537 12.4542 9.50917 12.5899 9.40914 12.6899C9.30911 12.7899 9.17344 12.8461 9.03198 12.8461C8.89051 12.8461 8.75484 12.7899 8.65481 12.6899C8.55478 12.5899 8.49859 12.4542 8.49859 12.3127V11.453H6.7923C6.73275 11.453 6.6738 11.4413 6.61879 11.4185C6.56378 11.3957 6.5138 11.3623 6.4717 11.3202C6.42959 11.2781 6.3962 11.2281 6.37341 11.1731C6.35063 11.1181 6.3389 11.0591 6.3389 10.9996C6.3389 10.94 6.35063 10.8811 6.37341 10.8261C6.3962 10.7711 6.42959 10.7211 6.4717 10.679C6.5138 10.6369 6.56378 10.6035 6.61879 10.5807C6.6738 10.5579 6.73275 10.5462 6.7923 10.5462H8.49859V9.99986H6.7923ZM15.2842 17.4184H4.18627C3.89939 17.428 3.61858 17.3344 3.3948 17.1547C3.17101 16.9749 3.01907 16.7209 2.96655 16.4387C2.96372 16.4198 2.96479 16.4005 2.96972 16.382C2.97464 16.3635 2.9833 16.3462 2.99516 16.3312C3.00703 16.3162 3.02185 16.3038 3.0387 16.2948C3.05555 16.2858 3.07408 16.2803 3.09314 16.2787H13.8974C14.0731 16.2859 14.2485 16.2582 14.4134 16.1973C14.5784 16.1365 14.7297 16.0436 14.8586 15.924C14.9874 15.8044 15.0914 15.6605 15.1645 15.5006C15.2375 15.3407 15.2782 15.1679 15.2842 14.9921V3.8542C15.2877 3.81476 15.3063 3.77819 15.3361 3.75215C15.3659 3.7261 15.4047 3.71259 15.4442 3.71444C16.0508 3.71444 16.5171 3.79444 16.5171 4.85416V16.2787C16.5237 16.905 16.4842 17.4184 15.2842 17.4184Z" fill="#646464"/>
</g>
</svg>
