<svg width="20" height="20" viewBox="0 0 20 20" fill="none" xmlns="http://www.w3.org/2000/svg">
<g id="Frame">
<path id="Vector" d="M13.912 6.872C14.56 6.216 15.256 5.224 15.256 4.184C15.256 3.576 15.096 3.088 14.712 2.712C14.008 2 12.776 2 11.368 2H8.352C7.008 2 5.928 2 5.232 2.656C4.856 3.04 4.688 3.536 4.688 4.192C4.688 5.288 5.392 6.216 5.976 6.88C3.616 8.128 2 10.656 2 13.232C2 18 7.744 18 10 18C12.256 18 18 18 18 13.232C18 10.6 16.328 8.128 13.912 6.872ZM11.616 11.368C11.936 11.368 12.16 11.592 12.16 11.92C12.16 12.248 11.944 12.472 11.616 12.472H10.544V13.024H11.616C11.936 13.024 12.16 13.248 12.16 13.576C12.16 13.904 11.944 14.128 11.616 14.128H10.544V15.272C10.544 15.6 10.328 15.824 10 15.824C9.672 15.824 9.456 15.6 9.456 15.272V14.128H8.384C8.064 14.128 7.84 13.904 7.84 13.576C7.84 13.248 8.056 13.024 8.384 13.024H9.456V12.472H8.384C8.064 12.472 7.84 12.248 7.84 11.92C7.84 11.592 8.056 11.368 8.384 11.368H9.456V11.04L7.952 9.56C7.736 9.336 7.736 9.008 7.952 8.792C8.168 8.568 8.496 8.568 8.704 8.792L10.048 10.104L11.392 8.792C11.608 8.568 11.936 8.568 12.144 8.792C12.36 9.016 12.36 9.344 12.144 9.56L10.528 11.152V11.376H11.616V11.368Z" fill="#646464"/>
</g>
</svg>
