<svg width="20" height="20" viewBox="0 0 20 20" fill="none" xmlns="http://www.w3.org/2000/svg">
<g id="Frame">
<g id="Group 18199">
<path id="Vector" d="M13.4615 2.47635L16.2807 5.28168C16.3199 5.32112 16.3465 5.37127 16.3572 5.4258C16.3679 5.48034 16.3623 5.53682 16.3409 5.58815C16.3196 5.63947 16.2836 5.68333 16.2374 5.71421C16.1912 5.74509 16.1368 5.76161 16.0813 5.76168H13.2621C13.2251 5.76182 13.1885 5.75467 13.1544 5.74064C13.1202 5.7266 13.0892 5.70596 13.063 5.6799C13.0368 5.65383 13.0161 5.62286 13.0019 5.58875C12.9878 5.55465 12.9805 5.51808 12.9805 5.48115V2.67582C12.9808 2.62025 12.9976 2.56602 13.0286 2.51991C13.0596 2.4738 13.1035 2.43786 13.1549 2.41658C13.2062 2.39529 13.2627 2.38961 13.3172 2.40024C13.3718 2.41087 13.422 2.43735 13.4615 2.47635Z" fill="#646464"/>
<path id="Vector_2" d="M16.0603 6.57601H12.5765C12.5285 6.57615 12.481 6.56681 12.4366 6.54854C12.3922 6.53027 12.3519 6.50342 12.3179 6.46954C12.2839 6.43565 12.2569 6.39538 12.2385 6.35106C12.2201 6.30673 12.2107 6.2592 12.2107 6.21121V2.73067C12.2104 2.63444 12.1912 2.53921 12.1541 2.45041C12.117 2.3616 12.0628 2.28098 11.9945 2.21313C11.9263 2.14528 11.8453 2.09154 11.7563 2.05497C11.6673 2.0184 11.572 1.99973 11.4757 2.00001H3.72107C3.62662 1.99959 3.53301 2.01781 3.44561 2.05363C3.35822 2.08945 3.27875 2.14217 3.21177 2.20875C3.14478 2.27534 3.09159 2.3545 3.05526 2.44168C3.01892 2.52886 3.00014 2.62236 3 2.71681V17.2832C3 17.68 3.3232 18 3.72 18H11.1099C10.2986 17.4323 9.67864 16.6319 9.33173 15.7045H5.87147C5.72019 15.7043 5.57514 15.6443 5.46787 15.5376C5.3606 15.4309 5.29979 15.2862 5.29867 15.1349C5.29867 14.8213 5.5568 14.5643 5.87147 14.5643H9.05866C8.96955 13.7839 9.07131 12.9936 9.3552 12.2613H5.87147C5.72019 12.2611 5.57514 12.2011 5.46787 12.0944C5.3606 11.9877 5.29979 11.843 5.29867 11.6917C5.29867 11.3792 5.5568 11.1221 5.87147 11.1221H9.9856C10.4419 10.5075 11.0359 10.0084 11.7201 9.66498C12.4042 9.32153 13.1593 9.14328 13.9248 9.14454C14.9534 9.14235 15.9564 9.46487 16.7909 10.0661V7.30241C16.7908 7.20664 16.7718 7.11185 16.735 7.02344C16.6982 6.93504 16.6443 6.85475 16.5764 6.78719C16.5086 6.71962 16.428 6.6661 16.3395 6.62968C16.2509 6.59326 16.156 6.57466 16.0603 6.57494V6.57601ZM14.4944 8.25814C14.4933 8.40941 14.4325 8.55412 14.3252 8.66079C14.2179 8.76746 14.0729 8.82746 13.9216 8.82774H5.87147C5.72019 8.82746 5.57514 8.76746 5.46787 8.66079C5.3606 8.55412 5.29979 8.40941 5.29867 8.25814C5.29867 7.9456 5.5568 7.68854 5.87147 7.68854H13.9216C14.2373 7.68854 14.4944 7.94454 14.4944 8.25814Z" fill="#646464"/>
<path id="Vector_3" d="M16.7867 11.333C16.4229 10.9697 15.9909 10.6819 15.5155 10.486C15.0401 10.2902 14.5307 10.1901 14.0166 10.1917C13.5023 10.19 12.9927 10.29 12.5171 10.4858C12.0415 10.6817 11.6094 10.9696 11.2454 11.333C10.8808 11.6933 10.5915 12.1225 10.3944 12.5958C10.1974 13.069 10.0965 13.5767 10.0977 14.0893C10.0977 15.1303 10.5051 16.1095 11.2454 16.8455C11.6094 17.2089 12.0415 17.4969 12.5171 17.6927C12.9927 17.8886 13.5023 17.9885 14.0166 17.9869C14.5307 17.9884 15.0401 17.8884 15.5155 17.6925C15.9909 17.4966 16.4229 17.2088 16.7867 16.8455C17.1514 16.4853 17.4406 16.056 17.6377 15.5828C17.8347 15.1096 17.9356 14.6019 17.9345 14.0893C17.9345 13.0471 17.527 12.0679 16.7867 11.3319V11.333ZM15.7137 13.4663C15.9323 13.4663 16.1137 13.6455 16.1137 13.8653C16.1131 13.9711 16.0707 14.0724 15.9958 14.1471C15.9209 14.2218 15.8195 14.2639 15.7137 14.2642H14.4166V14.9682H15.4545C15.6731 14.9682 15.8555 15.1463 15.8555 15.3661C15.855 15.4721 15.8125 15.5735 15.7373 15.6483C15.6622 15.723 15.5605 15.765 15.4545 15.765H14.4166V16.7826C14.4092 16.8836 14.3639 16.9781 14.2897 17.0471C14.2155 17.1161 14.1179 17.1544 14.0166 17.1544C13.9153 17.1544 13.8177 17.1161 13.7435 17.0471C13.6693 16.9781 13.624 16.8836 13.6166 16.7826V15.765H12.5777C12.4718 15.7647 12.3704 15.7226 12.2955 15.6479C12.2206 15.5732 12.1782 15.4719 12.1777 15.3661C12.1777 15.1485 12.3569 14.9682 12.5777 14.9682H13.6155V14.2642H12.3206C12.2148 14.2639 12.1134 14.2218 12.0384 14.1471C11.9635 14.0724 11.9212 13.9711 11.9206 13.8653C11.9206 13.6477 12.0998 13.4674 12.3206 13.4674H12.9723L11.9313 12.4306C11.8943 12.3937 11.8649 12.3499 11.8449 12.3017C11.8249 12.2535 11.8146 12.2018 11.8146 12.1495C11.8146 12.0973 11.8249 12.0456 11.8449 11.9974C11.8649 11.9491 11.8943 11.9053 11.9313 11.8685C12.0064 11.7938 12.108 11.7519 12.2139 11.7519C12.3198 11.7519 12.4215 11.7938 12.4966 11.8685L14.0166 13.3799L15.5355 11.8685C15.6107 11.7938 15.7123 11.7519 15.8182 11.7519C15.9241 11.7519 16.0257 11.7938 16.1009 11.8685C16.1379 11.9053 16.1672 11.9491 16.1872 11.9974C16.2073 12.0456 16.2176 12.0973 16.2176 12.1495C16.2176 12.2018 16.2073 12.2535 16.1872 12.3017C16.1672 12.3499 16.1379 12.3937 16.1009 12.4306L15.0598 13.4674H15.7137V13.4663Z" fill="#646464"/>
</g>
</g>
</svg>
