<svg width="20" height="20" viewBox="0 0 20 20" fill="none" xmlns="http://www.w3.org/2000/svg">
<g id="Frame">
<g id="Group 18193">
<path id="Vector" d="M12.6839 11.9304C11.9214 12.5714 10.9679 12.9214 9.96071 12.9214C8.95357 12.9214 8 12.5714 7.23929 11.9304C5.04286 12.8875 3.51607 14.9589 3.51607 17.3607C3.51607 17.6357 3.7375 17.8571 4.0125 17.8571C4.03036 17.8571 4.04821 17.8554 4.06607 17.8536H15.8571C15.875 17.8554 15.8929 17.8571 15.9107 17.8571C15.9286 17.8571 15.9464 17.8554 15.9643 17.8536H16.0232V17.8429C16.1322 17.8171 16.2292 17.7553 16.2986 17.6674C16.3679 17.5796 16.4056 17.4709 16.4054 17.3589C16.4071 14.9589 14.8804 12.8875 12.6839 11.9304ZM5.80893 7.80893C5.975 7.00357 6.36964 6.26429 6.96429 5.66964C7.40893 5.225 7.93393 4.89107 8.50714 4.68214C8.19286 3.70536 7.28036 3 6.20357 3C4.86964 3 3.7875 4.08393 3.7875 5.41964C3.7875 6.62321 4.6625 7.61964 5.80893 7.80893ZM5.72143 8.67321C5.72143 8.50179 5.73214 8.33036 5.75179 8.1625H5.75C5.25893 8.08214 4.8 7.86786 4.42143 7.54821C2.99286 8.175 2 9.525 2 11.0875C2 11.2661 2.14464 11.4107 2.32321 11.4107C2.33571 11.4107 2.34643 11.4107 2.35893 11.4089H6.71786C6.07321 10.6446 5.72143 9.68571 5.72143 8.67321ZM18 11.0875C18 9.52321 17.0071 8.17321 15.5786 7.54821C15.1804 7.88393 14.6929 8.10179 14.1732 8.17321C14.1929 8.3375 14.2018 8.50357 14.2018 8.67321C14.2018 9.68571 13.85 10.6446 13.2054 11.4107H17.6411C17.6518 11.4125 17.6643 11.4125 17.6768 11.4125C17.6893 11.4125 17.7 11.4125 17.7125 11.4107H17.7518V11.4036C17.8929 11.3696 18 11.2411 18 11.0875ZM14.1161 7.81964C15.2982 7.6625 16.2107 6.64821 16.2107 5.42143C16.2107 4.08393 15.1286 3.00179 13.7946 3.00179C12.7089 3.00179 11.7893 3.71964 11.4857 4.70714C12.0321 4.91786 12.5339 5.24286 12.9607 5.66964C13.5554 6.26607 13.9536 7.01071 14.1161 7.81964Z" fill="#646464"/>
<path id="Vector_2" d="M6.25781 8.67312C6.25781 9.16042 6.35361 9.64294 6.53973 10.0931C6.72585 10.5434 6.99866 10.9524 7.34256 11.297C7.68647 11.6416 8.09475 11.9149 8.54409 12.1014C8.99343 12.2879 9.47502 12.3838 9.96138 12.3838C10.4477 12.3838 10.9293 12.2879 11.3787 12.1014C11.828 11.9149 12.2363 11.6416 12.5802 11.297C12.9241 10.9524 13.1969 10.5434 13.383 10.0931C13.5692 9.64294 13.665 9.16042 13.665 8.67312C13.665 7.68897 13.2748 6.74514 12.5802 6.04925C11.8856 5.35335 10.9436 4.9624 9.96138 4.9624C8.97914 4.9624 8.03712 5.35335 7.34256 6.04925C6.64801 6.74514 6.25781 7.68897 6.25781 8.67312Z" fill="#646464"/>
</g>
</g>
</svg>
