<svg width="20" height="20" viewBox="0 0 20 20" fill="none" xmlns="http://www.w3.org/2000/svg">
<g id="Frame">
<path id="Vector" d="M9.40705 2.28013C9.95899 1.90429 10.6853 1.90684 11.2346 2.28655L16.8399 6.16129C17.0548 6.30988 17.2305 6.5084 17.3519 6.73981C17.4732 6.97123 17.5366 7.22864 17.5366 7.48994V16.3848C17.5366 17.2769 16.8135 18 15.9214 18H4.61515C3.72312 18 3 17.2769 3 16.3848V7.49717C3 7.23395 3.06433 6.97472 3.18739 6.74204C3.31045 6.50935 3.48851 6.31028 3.70608 6.16212L9.40705 2.28013ZM13.4987 13.947H7.03794C6.59192 13.947 6.23035 14.3086 6.23035 14.7546V14.7731C6.23035 15.2192 6.59192 15.5807 7.03792 15.5807H13.4987C13.9447 15.5807 14.3062 15.2192 14.3062 14.7731V14.7546C14.3062 14.3086 13.9447 13.947 13.4987 13.947Z" fill="#646464"/>
</g>
</svg>
