<svg width="20" height="20" viewBox="0 0 20 20" fill="none" xmlns="http://www.w3.org/2000/svg">
<g id="Frame">
<path id="Vector" d="M15.0909 2C15.6696 2 16.2245 2.22987 16.6337 2.63904C17.0429 3.04821 17.2727 3.60316 17.2727 4.18182V15.8182C17.2727 16.3968 17.0429 16.9518 16.6337 17.361C16.2245 17.7701 15.6696 18 15.0909 18H5.63636C5.12074 17.9999 4.62179 17.8173 4.22794 17.4845C3.8341 17.1517 3.57081 16.6902 3.48473 16.1818H4.36364C4.79095 16.1818 5.2013 16.0147 5.50699 15.7161C5.81268 15.4175 5.98945 15.0112 5.99952 14.584C6.00959 14.1568 5.85215 13.7426 5.56087 13.43C5.26959 13.1173 4.86756 12.931 4.44073 12.9109L4.36364 12.9091H3.45455V11.6364H4.36364C4.78428 11.6364 5.18877 11.4744 5.49313 11.184C5.7975 10.8937 5.97836 10.4973 5.99818 10.0771L6 10C6 9.57936 5.83801 9.17487 5.54766 8.8705C5.25731 8.56614 4.8609 8.38527 4.44073 8.36545L4.36364 8.36364H3.45455V7.09091H4.36364C4.78428 7.09091 5.18877 6.92892 5.49313 6.63857C5.7975 6.34822 5.97836 5.95181 5.99818 5.53164L6 5.45455C6 5.0339 5.83801 4.62941 5.54766 4.32505C5.25731 4.02068 4.8609 3.83982 4.44073 3.82L4.36364 3.81818H3.48473C3.57081 3.30979 3.8341 2.8483 4.22794 2.51549C4.62179 2.18269 5.12074 2.00007 5.63636 2H15.0909ZM4.36364 14C4.5083 14 4.64704 14.0575 4.74933 14.1598C4.85162 14.2621 4.90909 14.4008 4.90909 14.5455C4.90909 14.6901 4.85162 14.8289 4.74933 14.9311C4.64704 15.0334 4.5083 15.0909 4.36364 15.0909H2.54545C2.40079 15.0909 2.26205 15.0334 2.15976 14.9311C2.05747 14.8289 2 14.6901 2 14.5455C2 14.4008 2.05747 14.2621 2.15976 14.1598C2.26205 14.0575 2.40079 14 2.54545 14H4.36364ZM14.6909 6.4C14.5896 6.29868 14.4693 6.21831 14.337 6.16347C14.2046 6.10864 14.0627 6.08041 13.9195 6.08041C13.7762 6.08041 13.6343 6.10864 13.5019 6.16347C13.3696 6.21831 13.2493 6.29868 13.148 6.4L7.92182 11.6269C7.80921 11.7395 7.73665 11.8859 7.71527 12.0436L7.568 13.1316C7.56042 13.1876 7.56598 13.2445 7.58424 13.298C7.60249 13.3514 7.63293 13.3999 7.67316 13.4395C7.71338 13.4791 7.76228 13.5088 7.81598 13.5263C7.86969 13.5437 7.92671 13.5484 7.98255 13.54L9.05418 13.3785C9.20798 13.3555 9.35034 13.2837 9.46036 13.1738L14.6905 7.94327C14.8951 7.7387 15.0099 7.46127 15.0099 7.172C15.0099 6.88273 14.8951 6.6053 14.6905 6.40073L14.6909 6.4ZM4.36364 9.45455C4.5083 9.45455 4.64704 9.51201 4.74933 9.61431C4.85162 9.7166 4.90909 9.85534 4.90909 10C4.90909 10.1447 4.85162 10.2834 4.74933 10.3857C4.64704 10.488 4.5083 10.5455 4.36364 10.5455H2.54545C2.40079 10.5455 2.26205 10.488 2.15976 10.3857C2.05747 10.2834 2 10.1447 2 10C2 9.85534 2.05747 9.7166 2.15976 9.61431C2.26205 9.51201 2.40079 9.45455 2.54545 9.45455H4.36364ZM4.36364 4.90909C4.5083 4.90909 4.64704 4.96656 4.74933 5.06885C4.85162 5.17114 4.90909 5.30988 4.90909 5.45455C4.90909 5.59921 4.85162 5.73795 4.74933 5.84024C4.64704 5.94253 4.5083 6 4.36364 6H2.54545C2.40079 6 2.26205 5.94253 2.15976 5.84024C2.05747 5.73795 2 5.59921 2 5.45455C2 5.30988 2.05747 5.17114 2.15976 5.06885C2.26205 4.96656 2.40079 4.90909 2.54545 4.90909H4.36364Z" fill="#646464"/>
</g>
</svg>
