<svg width="20" height="20" viewBox="0 0 20 20" fill="none" xmlns="http://www.w3.org/2000/svg">
<g id="Frame">
<path id="Vector" d="M15.7141 2H4.28594C3.02813 2 2 3.02813 2 4.28594V15.7141C2 16.9719 3.02813 18 4.28594 18H15.7141C16.9719 18 18 16.9719 18 15.7141V4.28594C18 3.02813 16.9719 2 15.7141 2ZM6.57188 15.1422C6.57188 15.4562 6.31406 15.7141 6 15.7141H4.85781C4.54375 15.7141 4.28594 15.4562 4.28594 15.1422V9.42812C4.28594 9.11406 4.54375 8.85625 4.85781 8.85625H6C6.31406 8.85625 6.57188 9.11406 6.57188 9.42812V15.1422ZM11.1531 15.1422C11.1531 15.4562 10.8953 15.7141 10.5813 15.7141H9.43906C9.125 15.7141 8.86719 15.4562 8.86719 15.1422V7.14219C8.86719 6.82813 9.125 6.57031 9.43906 6.57031H10.5813C10.8953 6.57031 11.1531 6.82813 11.1531 7.14219V15.1422ZM15.7141 15.1422C15.7141 15.4562 15.4562 15.7141 15.1422 15.7141H14C13.6859 15.7141 13.4281 15.4562 13.4281 15.1422V8.28594C13.4281 7.97187 13.6859 7.71406 14 7.71406H15.1422C15.4562 7.71406 15.7141 7.97187 15.7141 8.28594V15.1422Z" fill="#646464"/>
</g>
</svg>
