<svg width="20" height="20" viewBox="0 0 20 20" fill="none" xmlns="http://www.w3.org/2000/svg">
<g id="Frame">
<g id="Frame_2" clip-path="url(#clip0_1669_18484)">
<path id="Vector" d="M11.7045 7.7289C11.7044 7.67992 11.6946 7.63144 11.6758 7.58622C11.657 7.541 11.6295 7.49992 11.5948 7.46535C11.5601 7.43077 11.5189 7.40336 11.4736 7.38469C11.4284 7.36603 11.3798 7.35646 11.3309 7.35654C11.2308 7.3562 11.1347 7.3956 11.0637 7.46609L9.8291 8.68782L8.59445 7.46671C8.52002 7.40081 8.42265 7.36685 8.32338 7.37214C8.22411 7.37744 8.13091 7.42158 8.06391 7.49502C8.00215 7.56299 7.96793 7.65153 7.96793 7.74337C7.96793 7.8352 8.00215 7.92374 8.06391 7.99171L9.29917 9.21343H8.32857C8.27956 9.21311 8.23098 9.22246 8.1856 9.24095C8.14022 9.25944 8.09893 9.28671 8.06411 9.32119C8.02929 9.35567 8.00161 9.39668 7.98267 9.44188C7.96373 9.48707 7.9539 9.53556 7.95374 9.58457C7.95374 9.78952 8.12177 9.9557 8.32918 9.9557H9.45427V10.7004H8.32857C8.12177 10.6998 7.95312 10.866 7.95312 11.0709C7.95312 11.2759 8.12177 11.4415 8.32857 11.4415H9.45427V12.06C9.45427 12.265 9.6223 12.4311 9.82971 12.4311C10.0365 12.4311 10.2039 12.265 10.2039 12.06V11.4402H11.3296C11.5364 11.4402 11.7051 11.2741 11.7051 11.0691C11.7048 11.0201 11.6949 10.9716 11.6759 10.9264C11.6569 10.8812 11.6292 10.8402 11.5943 10.8057C11.5594 10.7712 11.5181 10.744 11.4727 10.7255C11.4273 10.707 11.3787 10.6976 11.3296 10.698H10.2039V9.9557H11.3296C11.5364 9.9557 11.7051 9.78952 11.7051 9.58457C11.7048 9.53553 11.6949 9.48703 11.6759 9.44183C11.6569 9.39663 11.6292 9.35562 11.5943 9.32115C11.5594 9.28668 11.5181 9.25942 11.4727 9.24094C11.4273 9.22246 11.3787 9.21311 11.3296 9.21343H10.359L11.5943 7.99171C11.6293 7.95748 11.6571 7.9166 11.6762 7.87147C11.6952 7.82635 11.705 7.77788 11.7051 7.7289H11.7045Z" fill="#646464"/>
<path id="Vector_2" d="M17.6553 7.47407V5.05524C17.6553 4.38683 17.1075 3.84521 16.4329 3.84521H3.22295C2.54777 3.84521 2 4.38683 2 5.05463V7.47407C3.35097 7.47407 4.44591 8.55731 4.44591 9.89289C4.44591 11.2297 3.35097 12.3129 2 12.3129V14.7318C2 15.4002 2.54777 15.9418 3.22295 15.9418H16.4329C17.1087 15.9418 17.6559 15.4002 17.6559 14.7318V12.3129C16.3049 12.3129 15.21 11.2297 15.21 9.89351C15.21 8.55731 16.3055 7.47468 17.6559 7.47468L17.6553 7.47407ZM9.82764 13.7642C7.66608 13.7642 5.91382 12.0311 5.91382 9.89289C5.91382 7.75534 7.66608 6.02277 9.82825 6.02277C11.9892 6.02277 13.7415 7.75534 13.7415 9.89351C13.7415 12.0311 11.9892 13.7642 9.82764 13.7642Z" fill="#646464"/>
</g>
</g>
<defs>
<clipPath id="clip0_1669_18484">
<rect width="16" height="16" fill="white" transform="translate(2 2)"/>
</clipPath>
</defs>
</svg>
