<svg width="20" height="20" viewBox="0 0 20 20" fill="none" xmlns="http://www.w3.org/2000/svg">
<g id="Frame">
<g id="Group 18196">
<path id="Vector" d="M2 10C2 12.1217 2.84285 14.1566 4.34315 15.6569C5.84344 17.1571 7.87827 18 10 18C12.1217 18 14.1566 17.1571 15.6569 15.6569C17.1571 14.1566 18 12.1217 18 10C18 7.87827 17.1571 5.84344 15.6569 4.34315C14.1566 2.84285 12.1217 2 10 2C7.87827 2 5.84344 2.84285 4.34315 4.34315C2.84285 5.84344 2 7.87827 2 10Z" fill="#646464"/>
<path id="Vector_2" d="M7.42188 7.35229V12.545H8.20733V7.35229H7.42188ZM9.24006 7.35229V12.545H10.0328V10.5232H11.3782C12.6219 10.5232 13.2473 9.9923 13.2473 8.93048C13.2473 7.87593 12.6291 7.35229 11.3928 7.35229H9.24006ZM10.0328 8.02866H11.3273C11.7128 8.02866 11.9964 8.10139 12.1782 8.24684C12.3601 8.37775 12.4546 8.61048 12.4546 8.93048C12.4546 9.25048 12.3601 9.4832 12.1855 9.62866C12.0037 9.77411 11.7201 9.84684 11.3273 9.84684H10.0328V8.02866Z" fill="white"/>
</g>
</g>
</svg>
