<svg width="20" height="20" viewBox="0 0 20 20" fill="none" xmlns="http://www.w3.org/2000/svg">
<g id="Frame">
<path id="Vector" d="M17.7485 16.5066L16.3581 15.1071C16.755 14.468 16.9852 13.7137 16.9852 12.9079C16.9852 10.6028 15.1101 8.73379 12.7989 8.73379C10.4877 8.73379 8.60656 10.6058 8.60656 12.9079C8.60656 15.2131 10.4816 17.0821 12.7928 17.0821C13.6652 17.0821 14.474 16.8186 15.1435 16.3612L16.5096 17.7364C16.6701 17.8969 16.8852 17.9908 17.1275 17.9908C17.6092 17.9908 17.9999 17.6031 17.9999 17.1215C18.003 16.8852 17.903 16.6671 17.7485 16.5066ZM12.7959 15.7947C11.1965 15.7947 9.90303 14.5043 9.90303 12.911C9.90303 11.3176 11.1965 10.0272 12.7959 10.0272C14.3953 10.0272 15.6887 11.3176 15.6887 12.911C15.6917 14.5013 14.3953 15.7947 12.7959 15.7947ZM8.60959 8.11281C12.7807 8.11281 15.6857 7.05867 15.6857 5.7622V4.35062C15.6857 3.05111 12.7777 2 8.60959 2C4.43846 2 2.00303 3.05414 2.00303 4.35062V5.7622C2.00303 7.05867 4.44149 8.11281 8.60959 8.11281ZM7.60391 13.9954C4.74137 13.8894 3.21772 12.9806 2.33926 12.1113C2.11511 12.3324 2.00606 12.5687 2.00606 12.8171V14.6982C2.00606 15.9977 4.44452 17.0488 8.61262 17.0488C9.03064 17.0488 9.43352 17.0397 9.83639 17.0155C8.76105 16.2461 7.84927 15.3403 7.60391 13.9954ZM7.66753 12.7928C7.66753 11.5509 8.11584 10.4089 8.85192 9.51833H8.58233C5.2018 9.51833 3.2995 8.82466 2.33321 7.87048C2.10905 8.09161 2 8.32788 2 8.57627V10.4574C2.00303 11.6569 4.07799 12.6474 7.66753 12.7928Z" fill="#646464"/>
</g>
</svg>
