<svg width="20" height="20" viewBox="0 0 20 20" fill="none" xmlns="http://www.w3.org/2000/svg">
<g id="Frame">
<g id="Frame_2">
<path id="Vector" d="M12.2828 10.0203C13.2516 9.31406 13.8797 8.17187 13.8797 6.88125C13.8797 4.7375 12.1422 3 9.99844 3C7.85469 3 6.11719 4.7375 6.11719 6.88125C6.11719 8.17187 6.74688 9.31406 7.71406 10.0203C5.23437 10.9469 3.46875 13.3359 3.46875 16.1391V16.1484C3.46875 16.6203 3.85469 17 4.32656 17H15.6703C16.1422 17 16.5281 16.6188 16.5281 16.1484V16.1391C16.5281 13.3359 14.7625 10.9469 12.2828 10.0203Z" fill="#646464"/>
<path id="Vector_2" d="M14.2172 5.40156C14.25 5.43125 14.2828 5.4625 14.3156 5.49375C14.7734 5.95156 15.0266 6.56094 15.0266 7.20937C15.0266 7.85781 14.775 8.46719 14.3156 8.925C14.1359 9.10469 13.9328 9.25156 13.7141 9.36562C13.6 9.53594 13.4734 9.7 13.3359 9.85313C13.6922 10.0422 14.0312 10.2625 14.3531 10.5109C14.8234 10.875 15.2438 11.2938 15.6094 11.7609C15.7422 11.8688 15.8703 11.9828 15.9922 12.1047C16.4031 12.5156 16.7312 12.9891 16.9703 13.5141V11.6125C16.3437 10.9078 15.5469 10.3547 14.6469 10.0188C15.5141 9.3875 16.0766 8.36406 16.0766 7.20937C16.0766 5.50312 14.8484 4.08594 13.2266 3.79062C13.6734 4.25781 14.0094 4.80625 14.2172 5.40156ZM4.39219 11.7594C4.75781 11.2922 5.17812 10.8734 5.64844 10.5094C5.96875 10.2609 6.30938 10.0422 6.66563 9.85156C6.52813 9.69844 6.40156 9.53437 6.2875 9.36406C6.06875 9.25 5.86562 9.10313 5.68594 8.92344C5.22812 8.46563 4.975 7.85625 4.975 7.20781C4.975 6.55937 5.22656 5.95 5.68594 5.49219C5.71719 5.46094 5.75 5.42969 5.78437 5.4C5.99219 4.80469 6.32813 4.25625 6.77656 3.78906C5.15625 4.08281 3.92656 5.50156 3.92656 7.20781C3.92656 8.3625 4.48906 9.38437 5.35625 10.0172C4.43906 10.3609 3.63281 10.925 3 11.6484V13.5844C3.24062 13.0313 3.57969 12.5328 4.00938 12.1047C4.13125 11.9813 4.25938 11.8672 4.39219 11.7594Z" fill="#646464"/>
</g>
</g>
</svg>
