<svg width="20" height="20" viewBox="0 0 20 20" fill="none" xmlns="http://www.w3.org/2000/svg">
<g id="Frame">
<g id="Group 18189">
<g id="Group 18198">
<path id="Vector" d="M14.2113 9.26318C13.2063 9.26318 12.2424 9.66243 11.5318 10.3731C10.8211 11.0838 10.4219 12.0476 10.4219 13.0527C10.4219 14.0577 10.8211 15.0216 11.5318 15.7322C12.2424 16.4429 13.2063 16.8421 14.2113 16.8421C15.2164 16.8421 16.1802 16.4429 16.8909 15.7322C17.6016 15.0216 18.0008 14.0577 18.0008 13.0527C18.0008 12.0476 17.6016 11.0838 16.8909 10.3731C16.1802 9.66243 15.2164 9.26318 14.2113 9.26318ZM14.0982 13.4486H13.4761V13.5617H13.9851V13.9576H13.4761V14.2404C13.4761 14.4666 13.4195 14.5798 13.3064 14.6363C13.1367 14.6929 12.967 14.6929 12.7408 14.6929C12.7408 14.5798 12.6277 14.3535 12.5711 14.2404H12.967C13.0236 14.2404 13.0236 14.2404 13.0236 14.1838V13.9576H12.2318C12.3449 14.0707 12.458 14.1838 12.5146 14.297L12.1752 14.5798C12.1187 14.4666 11.8924 14.2404 11.7227 14.1273L11.8924 14.0142H11.3268V13.6183H13.0236V13.5051H11.2137V13.1092H12.458V12.9961H11.5531V12.6002H11.949C11.949 12.5436 11.8924 12.4305 11.7793 12.3174C11.6662 12.4305 11.6096 12.5436 11.4965 12.6567C11.3834 12.6002 11.2137 12.4305 11.1006 12.3739C11.3268 12.2043 11.4965 11.9215 11.6096 11.6952L12.0621 11.8084C12.0621 11.8649 12.0055 11.8649 12.0055 11.9215H12.6277V12.1477C12.7408 11.978 12.8539 11.8084 12.9105 11.6387L13.363 11.7518C13.363 11.8084 13.3064 11.8649 13.3064 11.8649H14.0982V12.2608H13.6458C13.7023 12.3174 13.7023 12.3739 13.7589 12.4305L13.363 12.6002H13.8154V12.9961H12.8539V13.1092H14.0982V13.4486ZM14.381 13.1092C14.381 12.9961 14.2679 12.8264 14.2113 12.7133C14.2679 12.7133 14.3245 12.6567 14.381 12.5436C14.4376 12.4305 14.6638 12.0346 14.7769 11.6952L15.1729 11.9215C15.0597 12.2043 14.8901 12.4871 14.7204 12.7133H14.9466L15.1163 12.3739L15.4557 12.6002C15.3425 12.883 15.1729 13.1092 14.9466 13.3355L15.3425 13.2223V13.6183C14.5507 13.8445 14.381 13.901 14.3245 13.9576C14.3245 13.901 14.2113 13.6748 14.2113 13.5617C14.3245 13.5617 14.381 13.4486 14.4941 13.3355C14.5507 13.2789 14.6073 13.1658 14.7204 13.0527C14.5507 13.0527 14.4376 13.0527 14.381 13.1092ZM16.5868 14.3535C16.4737 14.5232 16.304 14.6363 16.1344 14.6929C16.0778 14.5798 15.9081 14.4101 15.795 14.3535C15.7385 14.4666 15.6819 14.5798 15.5688 14.6929C15.5122 14.6363 15.286 14.4666 15.1729 14.4101C15.2294 14.3535 15.286 14.2404 15.3425 14.1273C15.0032 14.297 14.6638 14.4101 14.4376 14.5232L14.3245 14.0707C14.6073 13.9576 15.0032 13.8445 15.3991 13.6748L15.4557 13.901C15.6253 13.4486 15.7385 12.883 15.7385 12.2608H15.4557V11.8084H16.9828C16.9262 12.0911 16.8696 12.3739 16.8131 12.6002H16.9828L17.2656 12.7133C17.1524 13.2223 17.0393 13.6183 16.8131 13.9576L17.3221 14.297C17.209 14.4101 17.0959 14.5798 17.0393 14.6929C16.8696 14.5798 16.7 14.4666 16.5868 14.3535Z" fill="#646464"/>
<path id="Vector_2" d="M13.0784 12.2612C13.0218 12.3743 12.9087 12.4309 12.8521 12.544V12.6006H13.3046C13.248 12.544 13.1915 12.3743 13.1349 12.2612H13.0784ZM15.7932 14.3539C15.9629 14.2408 16.1326 14.1277 16.2457 14.0146C16.1891 13.9014 16.076 13.7883 16.0195 13.6752C15.9629 13.9015 15.9063 14.1277 15.7932 14.3539ZM12.5128 12.2612H12.23C12.2865 12.3178 12.2865 12.3743 12.2865 12.4309L11.8906 12.6006H12.3997V12.4875H12.6825C12.6259 12.4309 12.5128 12.3743 12.4562 12.3178C12.4562 12.3178 12.4562 12.2612 12.5128 12.2612ZM16.4719 12.3178H16.2457C16.2457 12.544 16.1891 12.7703 16.1891 12.9965C16.2457 13.2227 16.4154 13.449 16.5285 13.6752C16.6416 13.5055 16.6982 13.2793 16.7547 13.1096H16.2457C16.3023 12.8268 16.3588 12.544 16.4719 12.3178Z" fill="#646464"/>
</g>
<path id="Vector_3" d="M4.05078 6.09862C4.05078 6.63686 4.1568 7.16982 4.36277 7.66709C4.56874 8.16436 4.87065 8.61619 5.25124 8.99678C5.63183 9.37737 6.08366 9.67927 6.58093 9.88525C7.07819 10.0912 7.61116 10.1972 8.1494 10.1972C8.68764 10.1972 9.2206 10.0912 9.71787 9.88525C10.2151 9.67927 10.667 9.37737 11.0476 8.99678C11.4282 8.61619 11.7301 8.16436 11.936 7.66709C12.142 7.16982 12.248 6.63686 12.248 6.09862C12.248 5.0116 11.8162 3.9691 11.0476 3.20046C10.2789 2.43182 9.23642 2 8.1494 2C7.06238 2 6.01988 2.43182 5.25124 3.20046C4.4826 3.9691 4.05078 5.0116 4.05078 6.09862Z" fill="#646464"/>
<path id="Vector_4" d="M11.9035 16.8112C10.61 16.0205 9.81196 14.5509 9.81563 12.9639C9.81746 12.3383 9.94222 11.7329 10.1715 11.1806C9.53676 10.9458 8.8561 10.8174 8.14793 10.8174C4.75198 10.8174 2 13.7473 2 17.3616H13.4244C12.896 17.2845 12.3805 17.1011 11.9035 16.8112Z" fill="#646464"/>
</g>
</g>
</svg>
