<svg width="20" height="20" viewBox="0 0 20 20" fill="none" xmlns="http://www.w3.org/2000/svg">
<g id="Frame">
<path id="Vector" d="M14.0118 12.4985C16.0725 12.4985 17.8847 14.0488 17.9982 16.052C18.0242 16.5114 17.7732 17.0128 17.0213 17.0128H10.9882C10.8682 17.0079 10.0008 16.9464 10.0248 16.0515C10.0794 14.0478 11.9511 12.4985 14.0118 12.4985ZM13.4984 2.00002C13.7635 2.00002 14.0178 2.10536 14.2054 2.29287C14.3929 2.48037 14.4982 2.73469 14.4982 2.99987V7.29424C13.929 7.18888 13.341 7.26587 12.8181 7.51423C12.2952 7.76259 11.864 8.16967 11.586 8.67744C11.308 9.18521 11.1973 9.76777 11.2698 10.3421C11.3423 10.9165 11.5941 11.4533 11.9896 11.8761C11.1272 12.2375 10.3869 12.8393 9.85712 13.6098C9.3273 14.3802 9.03029 15.2868 9.00148 16.2215L8.99899 16.3729V16.9979H2.99985C2.86855 16.9979 2.73853 16.972 2.61722 16.9217C2.49591 16.8715 2.38569 16.7978 2.29284 16.705C2.2 16.6122 2.12635 16.5019 2.0761 16.3806C2.02586 16.2593 2 16.1293 2 15.998V2.99987C2 2.86856 2.02586 2.73855 2.0761 2.61724C2.12635 2.49593 2.2 2.3857 2.29284 2.29286C2.38569 2.20001 2.49591 2.12636 2.61722 2.07611C2.73853 2.02586 2.86855 2 2.99985 2H13.4983L13.4984 2.00002ZM8.62404 10.9987H6.37437C6.27492 10.9987 6.17956 11.0382 6.10924 11.1085C6.03893 11.1788 5.99942 11.2742 5.99942 11.3736C5.99942 11.4731 6.03893 11.5684 6.10924 11.6388C6.17956 11.7091 6.27492 11.7486 6.37437 11.7486H8.62405C8.72349 11.7486 8.81886 11.7091 8.88918 11.6388C8.95949 11.5684 8.99899 11.4731 8.99899 11.3736C8.99899 11.2742 8.95949 11.1788 8.88918 11.1085C8.81886 11.0382 8.72349 10.9987 8.62405 10.9987H8.62404ZM8.62404 8.49906H6.37437C6.27492 8.49906 6.17956 8.53856 6.10924 8.60888C6.03893 8.67919 5.99942 8.77456 5.99942 8.874C5.99942 8.97344 6.03893 9.06881 6.10924 9.13913C6.17956 9.20944 6.27492 9.24894 6.37437 9.24894H8.62405C8.72349 9.24894 8.81886 9.20944 8.88918 9.13913C8.95949 9.06881 8.99899 8.97344 8.99899 8.874C8.99899 8.77456 8.95949 8.67919 8.88918 8.60888C8.81886 8.53856 8.72349 8.49906 8.62405 8.49906H8.62404ZM10.6238 5.99941H6.37437C6.27492 5.99941 6.17955 6.03891 6.10924 6.10923C6.03892 6.17954 5.99941 6.27491 5.99941 6.37436C5.99941 6.4738 6.03892 6.56917 6.10924 6.63949C6.17955 6.7098 6.27492 6.74931 6.37437 6.74931H10.6238C10.7232 6.74931 10.8186 6.7098 10.8889 6.63949C10.9592 6.56917 10.9987 6.4738 10.9987 6.37436C10.9987 6.27491 10.9592 6.17954 10.8889 6.10923C10.8186 6.03891 10.7232 5.99941 10.6238 5.99941ZM4.49964 10.9987C4.63223 10.9987 4.75939 11.0514 4.85314 11.1451C4.9469 11.2389 4.99957 11.3661 4.99957 11.4986V11.9986C4.99957 12.1312 4.9469 12.2583 4.85314 12.3521C4.75939 12.4458 4.63223 12.4985 4.49964 12.4985H3.9997C3.86712 12.4985 3.73996 12.4458 3.64621 12.3521C3.55246 12.2583 3.49979 12.1312 3.49979 11.9986V11.4986C3.49979 11.3661 3.55246 11.2389 3.64621 11.1451C3.73996 11.0514 3.86712 10.9987 3.9997 10.9987H4.49964ZM13.9983 7.99914C14.5286 7.99914 15.0372 8.20983 15.4123 8.58484C15.7873 8.95986 15.998 9.4685 15.998 9.99885C15.998 10.5292 15.7873 11.0378 15.4123 11.4129C15.0372 11.7879 14.5286 11.9986 13.9983 11.9986C13.4679 11.9986 12.9593 11.7879 12.5842 11.4129C12.2092 11.0378 11.9985 10.5292 11.9985 9.99886C11.9985 9.46851 12.2092 8.95988 12.5842 8.58486C12.9593 8.20984 13.4679 7.99916 13.9983 7.99916V7.99914ZM4.49964 11.4986H3.9997V11.9986H4.49964V11.4986ZM4.49964 8.49908C4.63223 8.49908 4.75938 8.55175 4.85314 8.6455C4.94689 8.73925 4.99957 8.86641 4.99957 8.99899V9.49893C4.99957 9.63152 4.9469 9.75868 4.85314 9.85243C4.75939 9.94619 4.63223 9.99886 4.49964 9.99886H3.9997C3.86712 9.99886 3.73996 9.94618 3.64621 9.85243C3.55246 9.75867 3.49979 9.63152 3.49979 9.49893V8.99899C3.49979 8.86641 3.55246 8.73926 3.64621 8.6455C3.73996 8.55175 3.86712 8.49908 3.9997 8.49908H4.49964ZM4.49964 8.99899H3.9997V9.49893H4.49964V8.99899ZM4.49964 5.99942C4.63223 5.99942 4.75939 6.05209 4.85314 6.14585C4.9469 6.23961 4.99957 6.36677 4.99957 6.49936V6.99929C4.99957 7.13188 4.94689 7.25903 4.85314 7.35279C4.75938 7.44654 4.63223 7.49921 4.49964 7.49921H3.9997C3.86712 7.4992 3.73996 7.44653 3.64621 7.35278C3.55246 7.25903 3.49979 7.13188 3.49979 6.99929V6.49936C3.49979 6.36677 3.55246 6.23961 3.64621 6.14586C3.73996 6.0521 3.86712 5.99943 3.9997 5.99942H4.49964ZM4.49964 6.49936H3.9997V6.99929H4.49964V6.49936Z" fill="#646464"/>
</g>
</svg>
