<svg width="20" height="20" viewBox="0 0 20 20" fill="none" xmlns="http://www.w3.org/2000/svg">
<g id="Frame">
<path id="Vector" d="M10.004 7.61028C8.55525 7.61028 7.38667 8.77886 7.38667 10.2116C7.38667 11.6443 8.55525 12.8129 10.004 12.8129C11.4527 12.8129 12.6213 11.6443 12.6213 10.2116C12.6213 8.77886 11.4527 7.61028 10.004 7.61028ZM7.87491 10.2836C7.84289 10.1796 7.89092 10.0595 8.01098 10.0195C8.02699 10.0195 8.04299 10.0035 8.08301 10.0035C8.17106 10.0035 8.2591 10.0595 8.27511 10.1395C8.29112 10.1956 8.29112 10.2436 8.2591 10.2996C8.24309 10.3556 8.18707 10.3877 8.13904 10.4037C8.10703 10.4197 8.08301 10.4197 8.06701 10.4197C7.97896 10.4197 7.89092 10.3636 7.87491 10.2836ZM9.16355 12.0285C9.14754 12.0285 9.13153 12.0445 9.10752 12.0445L9.09151 12.0605C9.0595 12.0605 8.98746 12.0045 8.98746 12.0045C8.51523 11.7243 8.21908 11.3561 8.01098 10.7638L7.99497 10.7318C7.97896 10.6278 8.02699 10.5397 8.11503 10.5077C8.13104 10.5077 8.14705 10.4917 8.17106 10.4917C8.24309 10.4917 8.30712 10.5237 8.34714 10.5958L8.36315 10.6278C8.53924 11.132 8.77936 11.4282 9.18756 11.6763C9.21958 11.6923 9.2756 11.7323 9.29161 11.7804C9.32363 11.8844 9.2676 11.9885 9.16355 12.0285ZM16.5592 5.37718H10.6203C10.3962 5.37718 10.1801 5.29714 10.012 5.16107C9.55574 4.79289 9.24359 4.30465 8.97946 3.78439C8.73934 3.32016 8.2511 3 7.68282 3H3.45672C2.64832 3 2 3.64832 2 4.44872V16.2866C2 16.8869 2.48824 17.3751 3.08854 17.3751H16.9114C17.5117 17.3751 17.9999 16.8869 17.9999 16.2866V6.8259C18.0079 6.0255 17.3596 5.37718 16.5592 5.37718ZM12.9894 14.5737C13.0615 14.6938 13.0935 14.8379 13.0935 15.014C13.0935 15.5022 12.8294 15.7503 12.4452 15.7503H7.56276C7.17857 15.7503 6.91443 15.5022 6.91443 15.014C6.91443 14.9259 6.93044 14.7338 7.01849 14.5737L8.33114 12.9169C7.40268 12.3566 6.79438 11.3641 6.79438 10.2116C6.79438 8.4507 8.24309 7.01799 10.004 7.01799C11.7648 7.01799 13.2136 8.4507 13.2136 10.2116C13.2136 11.3481 12.5812 12.3566 11.6768 12.9169L12.9894 14.5737Z" fill="#646464"/>
</g>
</svg>
