<svg width="20" height="20" viewBox="0 0 20 20" fill="none" xmlns="http://www.w3.org/2000/svg">
<g id="Frame">
<g id="Group 18195">
<path id="Vector" d="M14.5874 15.2204H3.34745C3.13898 15.2204 3 15.0814 3 14.8729C3 14.7687 3.03474 14.6644 3.10423 14.5949L4.49403 13.3789V8.9576C4.49403 6.06509 6.82193 3.73718 9.71444 3.73718C12.6069 3.73718 14.9349 6.06509 14.9349 8.9576V13.4136L16.3246 14.6297C16.3941 14.6992 16.4289 14.8034 16.4289 14.9076C16.4289 15.1161 16.2899 15.2551 16.0814 15.2551H14.5874V15.2204ZM7.9772 16.2627H11.4517C11.4517 17.2356 10.6873 17.9999 9.71444 17.9999C8.74159 17.9999 7.9772 17.2442 7.9772 16.2627Z" fill="#646464"/>
<path id="Vector_2" d="M9.71401 2C10.4784 2 11.1038 2.62541 11.1038 3.38979V4.77959C11.1038 5.16178 10.7911 5.47448 10.4089 5.47448H9.01912C8.63692 5.47448 8.32422 5.16178 8.32422 4.77959V3.38979C8.32422 2.62541 8.94963 2 9.71401 2Z" fill="#646464"/>
</g>
</g>
</svg>
