<svg width="20" height="20" viewBox="0 0 20 20" fill="none" xmlns="http://www.w3.org/2000/svg">
<g id="Frame">
<path id="Vector" d="M7.25682 3.1433H3.65704C2.74281 3.1433 2 3.82897 2 4.7432V8.40012C2 9.31435 2.74281 10 3.5999 10H7.25682C8.17105 10 8.85672 9.25721 8.85672 8.40012V4.7432C8.85672 3.82897 8.17105 3.1433 7.25682 3.1433ZM17.551 4.91348L15.0883 2.45192C14.7974 2.16307 14.4041 2.00098 13.9941 2.00098C13.5842 2.00098 13.1908 2.16307 12.8999 2.45192L10.4372 4.91348C10.1629 5.18775 9.99951 5.56944 9.99951 6.00713C9.99951 6.44481 10.1641 6.82765 10.4372 7.10077L12.8999 9.56234C13.1742 9.83661 13.5559 10 13.9947 10C14.4324 10 14.8152 9.83546 15.0883 9.56234L17.551 7.10077C17.8253 6.82765 17.9887 6.44481 17.9887 6.00713C18.0171 5.80252 17.9917 5.59404 17.9149 5.40226C17.8382 5.21048 17.7127 5.04202 17.551 4.91348ZM7.24311 11.1428H3.61362C2.69139 11.1428 2 11.8856 2 12.7427V16.3996C2 17.3139 2.74853 17.9995 3.61362 17.9995H7.24311C8.16534 17.9995 8.85672 17.2567 8.85672 16.3996V12.7427C8.85672 11.8285 8.16534 11.1428 7.24311 11.1428ZM15.2563 11.1428H11.5994C10.6852 11.1428 9.99951 11.8856 9.99951 12.7427V16.3996C9.99951 17.3139 10.7423 17.9995 11.5994 17.9995H15.2563C16.1706 17.9995 16.8562 17.2567 16.8562 16.3996V12.7427C16.8562 11.8285 16.1706 11.1428 15.2563 11.1428Z" fill="#646464"/>
</g>
</svg>
