<svg xmlns="http://www.w3.org/2000/svg" width="20" height="20" viewBox="0 0 20 20" fill="none">
<g id="Frame">
<g id="合作财务日志" clip-path="url(#clip0_1860_27221)">
<path id="Vector" d="M15.6 2H4.4C3.07452 2 2 3.07452 2 4.4V15.6C2 16.9255 3.07452 18 4.4 18H15.6C16.9255 18 18 16.9255 18 15.6V4.4C18 3.07452 16.9255 2 15.6 2Z" fill="#646464"/>
<g id="Group 18392">
<path id="Vector_2" d="M6.48077 7.96154C7.29858 7.96154 7.96154 7.29858 7.96154 6.48077C7.96154 5.66296 7.29858 5 6.48077 5C5.66296 5 5 5.66296 5 6.48077C5 7.29858 5.66296 7.96154 6.48077 7.96154Z" fill="white"/>
<path id="Vector_3" d="M13.4183 7.96154C14.2361 7.96154 14.899 7.29858 14.899 6.48077C14.899 5.66296 14.2361 5 13.4183 5C12.6005 5 11.9375 5.66296 11.9375 6.48077C11.9375 7.29858 12.6005 7.96154 13.4183 7.96154Z" fill="white"/>
<path id="Vector_4" d="M14.7308 9.33506V15.3038C14.7308 15.688 14.4185 16.0002 14.0344 16.0002H12.4656C12.0815 16.0002 11.7692 15.688 11.7692 15.3038V12.2306L10.0922 13.3797C9.96016 13.4888 9.77062 13.4888 9.63862 13.3797L7.96154 12.2306V15.3038C7.96154 15.688 7.64931 16.0002 7.26516 16.0002H5.69639C5.31223 16.0002 5 15.688 5 15.3038V9.33506C5 8.9509 5.31223 8.63867 5.69639 8.63867H7.26516C7.64931 8.63867 7.96154 8.9509 7.96154 9.33506V11.0671L9.86539 12.4032L11.7692 11.0671V9.33506C11.7692 8.9509 12.0815 8.63867 12.4656 8.63867H14.0344C14.4185 8.63867 14.7308 8.9509 14.7308 9.33506Z" fill="white"/>
</g>
</g>
</g>
<defs>
<clipPath id="clip0_1860_27221">
<rect width="16" height="16" fill="white" transform="translate(2 2)"/>
</clipPath>
</defs>
</svg>
