<svg width="20" height="20" viewBox="0 0 20 20" fill="none" xmlns="http://www.w3.org/2000/svg">
<g id="Frame">
<g id="Frame_2" clip-path="url(#clip0_2123_51500)">
<g id="Group 18427">
<path id="Vector" d="M13.266 10.1636C11.0791 10.1636 9.32812 11.9056 9.32812 14.0818C9.32812 16.2598 11.0773 18 13.266 18C15.4529 18 17.2039 16.258 17.2039 14.0818C17.2021 11.9056 15.4529 10.1636 13.266 10.1636ZM15.5619 12.6667L13.157 15.6612C13.048 15.8238 12.7747 15.8238 12.6103 15.7148L11.0237 14.4624C10.8593 14.3534 10.8593 14.0818 10.9683 13.9174C11.0773 13.7548 11.3507 13.7548 11.515 13.8638L12.7729 14.8983L14.9598 12.1772C15.0688 12.0146 15.3422 12.0146 15.5065 12.1236C15.6173 12.2862 15.6709 12.5041 15.5619 12.6667Z" fill="#646464"/>
<path id="Vector_2" d="M8.67153 12.94C8.56254 12.831 8.45356 12.6684 8.45356 12.504V11.3069H6.5936C6.26485 11.3069 6.04687 11.0353 6.04687 10.762C6.04687 10.4904 6.32024 10.217 6.5936 10.217H8.45356V9.23792H6.5936C6.26485 9.23792 6.04687 8.96634 6.04687 8.69297C6.04687 8.36601 6.32024 8.14803 6.5936 8.14803H7.74245L6.86697 7.27791C6.64899 7.05993 6.64899 6.67936 6.86697 6.46139C7.08494 6.24341 7.46908 6.24341 7.68706 6.46139L9.16288 7.93005L10.5297 6.56859C10.7477 6.35061 11.1318 6.35061 11.3498 6.56859C11.5678 6.78657 11.5678 7.16713 11.3498 7.38511L10.5297 8.20163H11.5142C11.8429 8.20163 12.0609 8.47321 12.0609 8.74658C12.0609 9.07354 11.7875 9.29152 11.5142 9.29152H9.60062V10.2724H10.6387C11.3498 9.78286 12.2253 9.51128 13.208 9.51128C14.3014 9.51128 15.2305 9.89185 16.0506 10.4904V4.33879C16.0506 3.68664 15.5039 3.1953 14.9018 3.1953H12.772V2.38057C12.772 2.16259 12.6076 2 12.3897 2H11.7875C11.5696 2 11.4052 2.16259 11.4052 2.38057V3.1417H6.81158V2.38057C6.81158 2.16259 6.6472 2 6.42923 2H5.71812C5.50014 2 5.33577 2.16259 5.33577 2.38057V3.1417H3.14885C2.49313 3.1417 2 3.68664 2 4.28519V16.1507C2 16.8046 2.54673 17.2941 3.14885 17.2941H9.82038C9.00029 16.4776 8.45356 15.2805 8.45356 14.0281C8.50716 13.7011 8.56254 13.3205 8.67153 12.94Z" fill="#646464"/>
</g>
</g>
</g>
<defs>
<clipPath id="clip0_2123_51500">
<rect width="16" height="16" fill="white" transform="translate(2 2)"/>
</clipPath>
</defs>
</svg>
