<svg width="20" height="20" viewBox="0 0 20 20" fill="none" xmlns="http://www.w3.org/2000/svg">
<g id="Frame">
<path id="Vector" d="M18 6.96444C18 6.7018 17.9483 6.44173 17.8478 6.19908C17.7473 5.95643 17.5999 5.73595 17.4142 5.55023C17.2285 5.36451 17.008 5.21719 16.7654 5.11668C16.5227 5.01618 16.2626 4.96444 16 4.96444H13.0044V3.96889C12.9931 3.70944 12.8825 3.46427 12.6956 3.28398C12.5087 3.10368 12.2597 3.00203 12 3H8C7.74031 3.00203 7.49132 3.10368 7.30441 3.28398C7.11749 3.46427 7.00694 3.70944 6.99556 3.96889V4.96444H4C3.73736 4.96444 3.47728 5.01618 3.23463 5.11668C2.99198 5.21719 2.7715 5.36451 2.58579 5.55023C2.21071 5.9253 2 6.43401 2 6.96444V9.47111H18V6.96444ZM12 4.96444H8V4.46667C8 4.33465 8.05244 4.20804 8.1458 4.11468C8.23915 4.02133 8.36576 3.96889 8.49778 3.96889H11.5022C11.6342 3.96889 11.7609 4.02133 11.8542 4.11468C11.9476 4.20804 12 4.33465 12 4.46667V4.96444ZM11.92 10.4667C11.9558 10.6211 11.9736 10.7792 11.9733 10.9378C11.9733 11.4611 11.7654 11.9631 11.3954 12.3331C11.0253 12.7032 10.5234 12.9111 10 12.9111C9.47664 12.9111 8.97471 12.7032 8.60464 12.3331C8.23457 11.9631 8.02667 11.4611 8.02667 10.9378C8.02635 10.7792 8.04425 10.6211 8.08 10.4667H2V15.2578C2.00932 15.782 2.22414 16.2816 2.59821 16.6491C2.97228 17.0165 3.47567 17.2223 4 17.2222H16C16.5243 17.2223 17.0277 17.0165 17.4018 16.6491C17.7759 16.2816 17.9907 15.782 18 15.2578V10.4667H11.92Z" fill="#646464"/>
</g>
</svg>
