<svg width="20" height="20" viewBox="0 0 20 20" fill="none" xmlns="http://www.w3.org/2000/svg">
<g id="Frame">
<path id="Vector" d="M15.2559 2H5.55429C4.66032 2 4 2.64 4 3.52381V16.4762C4 17.36 4.66032 18 5.55429 18H15.6419C16.5359 18 16.9422 17.36 16.9422 16.4762V3.51365C16.9422 2.62984 16.1498 2 15.2559 2ZM6.88508 5.79937H13.6813C14.0165 5.79937 14.2806 6.05333 14.2806 6.36825C14.2806 6.68317 14.0063 6.93714 13.6813 6.93714H6.88508C6.54984 6.93714 6.28571 6.68317 6.28571 6.36825C6.28571 6.06349 6.54984 5.79937 6.88508 5.79937ZM6.96635 9.19238H13.8438C14.179 9.19238 14.4533 9.46667 14.4533 9.79175C14.4533 10.127 14.179 10.3911 13.8438 10.3911H6.96635C6.63111 10.3911 6.35683 10.1168 6.35683 9.79175C6.35683 9.46667 6.63111 9.19238 6.96635 9.19238ZM6.88508 13.4286C6.54984 13.4286 6.28571 13.1746 6.28571 12.8597C6.28571 12.5448 6.54984 12.2908 6.88508 12.2908H9.86159C10.1968 12.2908 10.461 12.5448 10.461 12.8597C10.461 13.1746 10.1968 13.4286 9.86159 13.4286H6.88508ZM12.2794 17.1365C12.0356 17.1365 11.9137 16.9841 11.8222 16.8825C11.7308 16.781 11.68 16.72 11.5784 16.72C11.4768 16.72 11.426 16.7708 11.3346 16.8825C11.2432 16.9943 11.1111 17.1365 10.8775 17.1365C10.6337 17.1365 10.5117 16.9841 10.4203 16.8825C10.3289 16.781 10.2781 16.72 10.1765 16.72C10.0952 16.72 10.0343 16.659 10.0343 16.5778C10.0343 16.4965 10.0952 16.4356 10.1765 16.4356C10.4203 16.4356 10.5422 16.5879 10.6337 16.6895C10.7251 16.7911 10.7759 16.8521 10.8775 16.8521C10.979 16.8521 11.0298 16.8013 11.1213 16.6895C11.2127 16.5778 11.3346 16.4356 11.5784 16.4356C11.8222 16.4356 11.9441 16.5879 12.0356 16.6895C12.127 16.7911 12.1778 16.8521 12.2794 16.8521C12.3606 16.8521 12.4216 16.913 12.4216 16.9943C12.4216 17.0756 12.3606 17.1365 12.2794 17.1365ZM15.6521 11.1429L14.7479 12.3314C14.6971 12.4025 14.6768 12.4838 14.7073 12.5651L14.8292 13.0121C14.8698 13.1644 14.8394 13.327 14.7581 13.459C14.6667 13.5911 14.5244 13.6724 14.3721 13.6927L13.7524 13.774C13.6406 13.7841 13.5492 13.8654 13.5289 13.9771C13.5695 14.2108 13.4578 14.4343 13.2546 14.5359C13.153 14.5867 13.0311 14.607 12.9194 14.5867L12.3606 14.4851C12.2794 14.4749 12.1879 14.5054 12.1371 14.5664L11.1924 15.6127C11.1721 15.6635 11.0806 15.8971 11.0197 16.0292C10.9994 16.08 10.979 16.1206 10.9689 16.1511C10.9689 16.1613 10.9587 16.1714 10.9587 16.1714C10.9283 16.2425 10.8876 16.273 10.847 16.273C10.8267 16.273 10.8063 16.273 10.786 16.2629C10.7149 16.2425 10.6743 16.1613 10.7048 16.0902C10.8571 15.6533 11.3143 14.5765 11.3651 14.4648C12.4724 12.2806 13.6406 11.2952 15.5403 10.9295C15.6013 10.9194 15.6521 10.9397 15.6825 10.9905C15.6825 11.0311 15.6825 11.0921 15.6521 11.1429Z" fill="#646464"/>
</g>
</svg>
