<svg width="20" height="20" viewBox="0 0 20 20" fill="none" xmlns="http://www.w3.org/2000/svg">
<g id="Frame">
<path id="Vector" d="M15.576 2H4.144C3.576 2 3 2.568 3 3.144V16.856C3 17.544 3.456 18 4.144 18H15.576C16.144 18 16.72 17.432 16.72 16.856V3.144C16.72 2.456 16.264 2 15.576 2ZM7.048 13.488L5.832 12.344C5.6 12.12 5.592 11.752 5.824 11.528C6.04 11.312 6.384 11.304 6.608 11.512L7.464 12.288L9.256 10.208C9.464 9.968 9.824 9.944 10.064 10.152L10.104 10.184C10.344 10.4 10.368 10.768 10.144 11L7.848 13.464C7.64 13.696 7.28 13.712 7.048 13.488ZM7.048 8.92L5.832 7.776C5.6 7.552 5.592 7.184 5.824 6.96C6.04 6.744 6.384 6.736 6.608 6.944L7.464 7.72L9.256 5.64C9.464 5.4 9.824 5.376 10.064 5.584L10.104 5.616C10.344 5.832 10.368 6.2 10.144 6.432L7.848 8.896C7.64 9.128 7.28 9.136 7.048 8.92ZM14.432 13.432H11V12.288H14.432V13.432ZM14.432 8.856H11V7.712H14.432V8.856Z" fill="#646464"/>
</g>
</svg>
