<svg width="20" height="20" viewBox="0 0 20 20" fill="none" xmlns="http://www.w3.org/2000/svg">
<g id="Frame">
<g id="Group 18314">
<path id="Vector" d="M9.96003 15.3825C9.72964 15.3825 9.49925 15.3249 9.29406 15.2151L9.29046 15.2133L9.28686 15.2115L3.88529 12.2614L2.27796 13.0696C2.02957 13.1992 1.93237 13.5052 2.06017 13.7518C2.10697 13.84 2.17896 13.9138 2.26716 13.9624L9.72064 18.0302C9.79444 18.0698 9.87723 18.0914 9.96183 18.0914C10.0446 18.0914 10.1274 18.0716 10.1994 18.0302L17.7339 13.9624C17.8995 13.8742 18.0021 13.7014 18.0003 13.5178C17.9967 13.3306 17.8923 13.1596 17.7267 13.0732L16.114 12.2524L10.6332 15.2097C10.4298 15.3231 10.1976 15.3825 9.96003 15.3825Z" fill="#646464"/>
<path id="Vector_2" d="M17.9658 9.73955C17.9532 9.70716 17.9388 9.67656 17.9208 9.64776C17.874 9.57036 17.8056 9.50556 17.7228 9.46237L16.1101 8.6416L12.6687 10.4991L10.6329 11.5989C10.4296 11.7123 10.1974 11.7717 9.95977 11.7717C9.72938 11.7717 9.49899 11.7141 9.2938 11.6043L9.2902 11.6025L9.2866 11.6007L7.32108 10.5279L3.88503 8.6506L2.2777 9.46057C2.09951 9.55416 1.99871 9.73775 2.00411 9.92495C2.00411 9.93395 2.00411 9.94115 2.00591 9.95015C2.00771 9.96634 2.00951 9.98074 2.01131 9.99514L2.01671 10.0221C2.02571 10.0635 2.04011 10.1031 2.05991 10.1409C2.08691 10.1913 2.12291 10.2381 2.16611 10.2777L2.2039 10.3101C2.2237 10.3245 2.2453 10.3389 2.2669 10.3515L4.86059 11.7681L5.51576 12.1263L9.71858 14.4212C9.79238 14.4608 9.87517 14.4824 9.95977 14.4824C10.0426 14.4824 10.1254 14.4626 10.1974 14.4212L15.1364 11.7537L16.5763 10.9761L17.7318 10.3515C17.7462 10.3443 17.7588 10.3353 17.7714 10.3281C17.9136 10.2345 18 10.0761 17.9982 9.90695C17.9964 9.84935 17.9856 9.79175 17.9658 9.73955Z" fill="#646464"/>
<path id="Vector_3" d="M2.26325 6.741L9.71673 10.8088C9.79053 10.8484 9.87333 10.87 9.95792 10.87C10.0407 10.87 10.1235 10.8502 10.1955 10.8088L17.73 6.741C17.8956 6.6528 17.9982 6.48001 17.9964 6.29642C17.9928 6.10922 17.8884 5.93823 17.7228 5.85183L10.2639 2.054C10.1217 1.982 9.95252 1.982 9.81033 2.054L2.27405 5.84823C2.02566 5.97783 1.92847 6.28382 2.05626 6.53041C2.10306 6.6186 2.17506 6.6924 2.26325 6.741Z" fill="#646464"/>
</g>
</g>
</svg>
