<svg width="20" height="20" viewBox="0 0 20 20" fill="none" xmlns="http://www.w3.org/2000/svg">
<g id="Frame">
<path id="Vector" d="M14.3378 10.4021H8.9929C8.54749 10.4021 8.19117 10.0458 8.19117 9.60039C8.19117 9.15498 8.54749 8.79865 8.9929 8.79865H14.3378C14.7832 8.79865 15.1395 9.15498 15.1395 9.60039C15.1395 10.0458 14.7832 10.4021 14.3378 10.4021ZM5.20694 12.7628C5.20694 13.2527 5.56326 13.6091 6.05321 13.6091C6.54316 13.6091 6.89948 13.2082 6.89948 12.7628C6.89948 12.3174 6.54316 11.9165 6.05321 11.9165C5.56326 11.9165 5.20694 12.2728 5.20694 12.7628ZM5.20694 9.60039C5.20694 10.0903 5.56326 10.4467 6.05321 10.4467C6.54316 10.4467 6.89948 10.0458 6.89948 9.60039C6.89948 9.15498 6.54316 8.75411 6.05321 8.75411C5.56326 8.75411 5.20694 9.15498 5.20694 9.60039ZM14.3378 13.5645H8.9929C8.54749 13.5645 8.19117 13.2082 8.19117 12.7628C8.19117 12.3174 8.54749 11.961 8.9929 11.961H14.3378C14.7832 11.961 15.1395 12.3174 15.1395 12.7628C15.1395 13.2082 14.7832 13.5645 14.3378 13.5645ZM17.9901 16.1479V6.12621C17.9901 4.9236 16.8766 5.01269 16.8766 5.01269H10.5964C10.24 5.01269 10.0173 4.83452 10.0173 4.83452C10.0173 4.83452 9.75009 4.38912 9.26015 3.67646C8.81474 2.87473 8.23571 3.00835 8.23571 3.00835H3.38076C2 3.00835 2 4.30003 2 4.30003V16.0588C2 17.5286 3.11352 17.3505 3.11352 17.3505H17.0102C18.1683 17.3505 17.9901 16.1479 17.9901 16.1479Z" fill="#646464"/>
</g>
</svg>
