<svg width="20" height="20" viewBox="0 0 20 20" fill="none" xmlns="http://www.w3.org/2000/svg">
<g id="Frame">
<path id="Vector" d="M6.94795 9.46061C8.80527 9.46061 10.2613 8.00729 10.2613 6.23064C10.2613 4.45399 8.80727 3 6.94795 3C5.0913 3 3.63732 4.45332 3.63732 6.23064C3.63598 8.00729 5.0893 9.46061 6.94795 9.46061ZM5.86796 10.7966C3.75198 10.7966 2 12.6539 2 14.9966V15.2392C2 16.2092 3.75198 16.2092 5.86796 16.2092H7.83328C8.04928 14.8912 8.53327 13.2732 9.5726 11.6859C9.68859 11.5093 9.81326 11.3433 9.94059 11.1793C9.44654 10.9313 8.90205 10.8003 8.34927 10.7966H5.86796ZM17.8052 12.1859L14.6499 9.8946C14.5792 9.84311 14.4956 9.81222 14.4084 9.80534C14.3212 9.79847 14.2338 9.81588 14.156 9.85566C14.0781 9.89543 14.0127 9.95601 13.9672 10.0307C13.9216 10.1053 13.8976 10.1911 13.8979 10.2786V11.6879C13.1246 11.6573 11.5426 11.7826 10.6413 13.1612C10.1764 13.8778 9.86828 14.6845 9.73726 15.5285C9.66593 15.9752 10.2193 16.2572 10.5373 15.9352C11.2479 15.2199 12.3859 14.3772 13.8966 14.2326V15.5499C13.8966 15.9659 14.3926 16.1805 14.6965 15.8945L17.8519 12.9126C17.9024 12.8648 17.9417 12.8065 17.9672 12.7418C17.9926 12.6772 18.0035 12.6077 17.999 12.5383C17.9946 12.4689 17.9749 12.4014 17.9414 12.3405C17.9079 12.2796 17.8614 12.2268 17.8052 12.1859Z" fill="#646464"/>
</g>
</svg>
