<svg width="20" height="20" viewBox="0 0 20 20" fill="none" xmlns="http://www.w3.org/2000/svg">
<g id="Frame">
<path id="Vector" d="M15.6663 2H4.33369C3.66547 2 3.099 2.26797 2.66822 2.69875C2.26797 3.13292 2 3.69939 2 4.33369V15.6663C2 16.9654 3.03456 18 4.33369 18H15.6663C16.9654 18 18 16.9654 18 15.6663V4.33369C18 3.03116 16.9654 2 15.6663 2ZM14.6657 12.566C14.6657 12.9324 14.3672 13.2003 14.0314 13.2003H9.69981C9.43184 13.8007 8.86538 14.201 8.16663 14.201C7.46788 14.201 6.90142 13.8007 6.63345 13.2003H5.96523C5.5989 13.2003 5.33093 12.9018 5.33093 12.566V12.5321C5.33093 12.1658 5.62943 11.8978 5.96523 11.8978H6.63345C6.90142 11.2974 7.46788 10.8972 8.16663 10.8972C8.86538 10.8972 9.43184 11.2974 9.69981 11.8978H14.0314C14.3977 11.8978 14.6657 12.1963 14.6657 12.5321V12.566ZM14.6657 7.56625C14.6657 7.93258 14.3672 8.20055 14.0314 8.20055H13.3665C13.0986 8.80093 12.5321 9.20119 11.8334 9.20119C11.1346 9.20119 10.5682 8.80093 10.3002 8.20055H5.96862C5.60229 8.20055 5.33432 7.90206 5.33432 7.56625V7.53233C5.33432 7.166 5.63282 6.89803 5.96862 6.89803H10.3002C10.5682 6.29765 11.1346 5.89739 11.8334 5.89739C12.5321 5.89739 13.0986 6.29765 13.3665 6.89803H14.0348C14.4011 6.89803 14.6691 7.19652 14.6691 7.53233V7.56625H14.6657Z" fill="#646464"/>
</g>
</svg>
