<svg width="20" height="20" viewBox="0 0 20 20" fill="none" xmlns="http://www.w3.org/2000/svg">
<g id="Frame">
<path id="Vector" d="M15.0846 5.80536C15.2232 5.88536 15.3263 6.01603 15.3699 6.17336L17.9761 15.3974C18.0209 15.5529 18.0022 15.7198 17.924 15.8615C17.8458 16.0031 17.7147 16.108 17.5593 16.153L14.6863 16.9761C14.6098 16.9981 14.5296 17.0047 14.4504 16.9955C14.3713 16.9863 14.2948 16.9614 14.2253 16.9224C14.1559 16.8834 14.0948 16.8309 14.0458 16.7681C13.9968 16.7053 13.9607 16.6334 13.9397 16.5566L11.3352 7.32893C11.3131 7.25206 11.3063 7.17158 11.3154 7.09211C11.3244 7.01263 11.349 6.93572 11.3879 6.86578C11.4267 6.79584 11.4789 6.73425 11.5415 6.68453C11.6042 6.63481 11.6761 6.59794 11.753 6.57603L14.6241 5.75202C14.7787 5.70898 14.9439 5.72813 15.0846 5.80536ZM5.41871 5.99914C5.58045 5.99984 5.73537 6.0644 5.84974 6.17877C5.96411 6.29314 6.02868 6.44806 6.02938 6.60981V16.201C6.02938 16.3623 5.9655 16.517 5.85172 16.6312C5.73794 16.7455 5.58352 16.8101 5.42226 16.8108H2.60624C2.52628 16.8107 2.44714 16.7948 2.37335 16.764C2.29956 16.7332 2.23258 16.6881 2.17626 16.6314C2.11993 16.5747 2.07536 16.5073 2.04512 16.4333C2.01487 16.3593 1.99954 16.2801 2.00001 16.2001V6.60892C2.00001 6.27203 2.27023 6.00269 2.60268 5.99914H5.41871ZM10.3112 3C10.6516 3.00356 10.9219 3.27556 10.9219 3.61067V16.2001C10.9221 16.3615 10.8583 16.5165 10.7445 16.6309C10.6307 16.7454 10.4762 16.8101 10.3147 16.8108H7.41517C7.33521 16.8107 7.25607 16.7948 7.18228 16.764C7.10849 16.7332 7.04151 16.6881 6.98518 16.6314C6.92886 16.5747 6.88429 16.5073 6.85404 16.4333C6.8238 16.3593 6.80847 16.2801 6.80894 16.2001V3.60978C6.80894 3.27378 7.07916 3.00356 7.41161 3H10.3112ZM14.8837 8.24182L12.8481 8.82583C12.778 8.84592 12.7187 8.89287 12.6831 8.95646C12.6475 9.02005 12.6384 9.09514 12.6579 9.16539L12.8374 9.80806C12.847 9.84301 12.8634 9.87572 12.8857 9.90427C12.908 9.93282 12.9357 9.95664 12.9673 9.97435C12.9989 9.99205 13.0338 10.0033 13.0698 10.0074C13.1058 10.0115 13.1422 10.0084 13.177 9.99828L15.2135 9.41517C15.2837 9.39509 15.3432 9.348 15.3788 9.2842C15.4145 9.2204 15.4234 9.14509 15.4037 9.07472L15.2232 8.43205C15.2137 8.39709 15.1973 8.36439 15.175 8.33584C15.1527 8.30729 15.1249 8.28346 15.0933 8.26576C15.0617 8.24805 15.0269 8.23682 14.9909 8.23271C14.9549 8.2286 14.9185 8.2317 14.8837 8.24182ZM5.05693 8.51738H2.95557C2.91909 8.51726 2.88294 8.52439 2.84923 8.53835C2.81552 8.55231 2.78492 8.57283 2.7592 8.59871C2.73348 8.6246 2.71316 8.65533 2.69942 8.68913C2.68567 8.72293 2.67877 8.75912 2.67913 8.79561V9.46228C2.67913 9.61517 2.8018 9.73784 2.95469 9.73784H5.05515C5.09133 9.73784 5.12717 9.73071 5.1606 9.71686C5.19403 9.70301 5.22441 9.68271 5.25 9.65713C5.27558 9.63154 5.29588 9.60116 5.30973 9.56773C5.32358 9.5343 5.33071 9.49846 5.33071 9.46228V8.79561C5.33082 8.75934 5.32378 8.72342 5.30999 8.68988C5.29619 8.65635 5.27591 8.62586 5.25031 8.60018C5.22471 8.5745 5.19429 8.55412 5.1608 8.54022C5.12731 8.52631 5.09141 8.51916 5.05515 8.51916L5.05693 8.51827V8.51738ZM9.92186 5.11913H7.82228C7.78595 5.11901 7.74994 5.12608 7.71635 5.13993C7.68276 5.15378 7.65224 5.17414 7.62654 5.19984C7.60085 5.22553 7.58049 5.25605 7.56664 5.28965C7.55279 5.32324 7.54572 5.35924 7.54584 5.39558V6.06225C7.54584 6.21603 7.6685 6.33781 7.82139 6.33781H9.92186C9.95804 6.33781 9.99387 6.33068 10.0273 6.31683C10.0607 6.30298 10.0911 6.28269 10.1167 6.2571C10.1423 6.23151 10.1626 6.20113 10.1764 6.1677C10.1903 6.13427 10.1974 6.09844 10.1974 6.06225V5.39558C10.1974 5.35939 10.1903 5.32356 10.1764 5.29012C10.1626 5.25669 10.1423 5.22632 10.1167 5.20073C10.0911 5.17514 10.0607 5.15484 10.0273 5.14099C9.99387 5.12715 9.95804 5.12002 9.92186 5.12002V5.11913Z" fill="#646464"/>
</g>
</svg>
