<svg width="20" height="20" viewBox="0 0 20 20" fill="none" xmlns="http://www.w3.org/2000/svg">
<g id="Frame" clip-path="url(#clip0_1133_23884)">
<g id="Frame_2">
<path id="Vector" d="M13.6101 10.9254C14.0442 10.9254 14.2711 11.1594 14.2925 11.5989C14.3122 12.0402 14.0835 12.3135 13.544 12.31C13.2349 12.31 11.7593 12.2724 11.7593 12.2724V13.7874C11.7593 14.2287 11.3412 14.3037 10.9035 14.3037C10.4658 14.3037 10.0746 14.2269 10.0746 13.7874V12.2724H8.22019C7.78607 12.2724 7.54667 12.0384 7.54667 11.5989C7.54667 11.3059 7.54131 11.5007 7.5431 11.4774C7.57704 11.0683 7.8075 10.9236 8.22019 10.9236H10.0728V9.91246H8.22019C7.9004 9.91246 7.58598 9.83564 7.58598 9.10853C7.58598 8.66726 7.85395 8.3975 8.29165 8.3975H9.70299L8.74006 7.50603L8.28986 7.05226C7.99866 6.75748 7.99151 6.29656 8.25056 5.98392C8.26664 5.96427 8.272 5.94105 8.28986 5.92318C8.59893 5.61233 9.10094 5.61233 9.41 5.92318L9.46896 5.98392L10.9107 7.43457L12.4113 5.92318C12.7204 5.61233 13.2224 5.61233 13.5315 5.92318C13.8406 6.23403 13.8406 6.73962 13.5315 7.05226L12.1737 8.3975H13.5851C14.0228 8.3975 14.2908 8.66726 14.2908 9.10853C14.2908 9.5498 14.046 9.91246 13.6083 9.91246H11.7575V10.9236L13.6101 10.9254ZM14.8642 2H6.86958C4.34346 2 3.83609 2.58598 3.8343 4.98169C3.91291 4.97812 3.91291 4.99419 3.91291 4.99419H3.84681C3.18401 4.99419 3 5.53551 3 6.20188C3 6.86825 3.18401 7.40956 3.84681 7.40956L3.84323 7.38991V9.07459L3.84681 8.97097C3.18401 8.97097 3 9.51228 3 10.1787C3 10.8468 3.18401 11.3863 3.84681 11.3863L3.84323 11.2631V13.1157L3.84681 12.946C3.18401 12.946 3 13.4873 3 14.1536C3 14.8218 3.04288 15.5114 3.70567 15.5114L3.82894 15.5096C3.84681 17.6123 4.32381 18 6.86958 18H14.8624C17.0866 18 17.8191 17.4766 17.8191 15.3774V4.9799C17.8209 2.43948 17.1563 2 14.8642 2Z" fill="#646464"/>
</g>
</g>
<defs>
<clipPath id="clip0_1133_23884">
<rect width="20" height="20" fill="white"/>
</clipPath>
</defs>
</svg>
