<svg width="20" height="20" viewBox="0 0 20 20" fill="none" xmlns="http://www.w3.org/2000/svg">
<g id="Frame">
<path id="Vector" d="M10 2C8.41775 2 6.87103 2.46919 5.55544 3.34824C4.23985 4.2273 3.21447 5.47672 2.60897 6.93853C2.00347 8.40034 1.84504 10.0089 2.15372 11.5607C2.4624 13.1126 3.22433 14.538 4.34315 15.6569C5.46197 16.7757 6.88743 17.5376 8.43928 17.8463C9.99113 18.155 11.5997 17.9965 13.0615 17.391C14.5233 16.7855 15.7727 15.7602 16.6518 14.4446C17.5308 13.129 18 11.5822 18 10C18.0006 8.94926 17.794 7.90872 17.3922 6.93785C16.9904 5.96699 16.4011 5.08485 15.6581 4.34187C14.9152 3.59889 14.033 3.00963 13.0621 2.6078C12.0913 2.20596 11.0507 1.99943 10 2ZM13.878 11.1503H9.80828C9.61027 11.1503 9.4203 11.072 9.27987 10.9324C9.13945 10.7927 9.05998 10.6032 9.05883 10.4052V5.21133C9.05096 5.1084 9.06444 5.00495 9.09843 4.90748C9.13242 4.81 9.18618 4.7206 9.25634 4.64487C9.3265 4.56914 9.41155 4.50873 9.50615 4.46741C9.60075 4.4261 9.70287 4.40477 9.8061 4.40477C9.90933 4.40477 10.0115 4.4261 10.1061 4.46741C10.2007 4.50873 10.2857 4.56914 10.3559 4.64487C10.426 4.7206 10.4798 4.81 10.5138 4.90748C10.5478 5.00495 10.5612 5.1084 10.5534 5.21133V9.66449H13.878C14.0663 9.67888 14.2423 9.76385 14.3707 9.90241C14.499 10.041 14.5703 10.2229 14.5703 10.4118C14.5703 10.6006 14.499 10.7826 14.3707 10.9211C14.2423 11.0597 14.0663 11.1446 13.878 11.159V11.1503Z" fill="#646464"/>
</g>
</svg>
