<svg width="20" height="20" viewBox="0 0 20 20" fill="none" xmlns="http://www.w3.org/2000/svg">
<g id="Frame" clip-path="url(#clip0_1338_60973)">
<g id="Frame_2">
<path id="Vector" d="M15.4394 2H4.14334C3.51224 2 3 2.51057 3 3.14334V16.8567C3 17.4878 3.51057 18 4.14334 18H15.4428C16.0739 18 16.5861 17.4894 16.5861 16.8567V3.14334C16.5828 2.51224 16.0722 2 15.4411 2H15.4394ZM12.9083 10.9793C12.4798 12.3469 11.226 13.2643 9.79138 13.2643C9.03641 13.2643 8.33501 13.0098 7.77087 12.5696C7.70559 12.8123 7.48294 12.9948 7.22013 12.9948C6.90542 12.9948 6.6493 12.737 6.6493 12.4239V10.8069C6.64896 10.67 6.6978 10.5376 6.7869 10.4338C6.87601 10.3299 6.99945 10.2615 7.13475 10.2411C7.41431 10.2009 7.68382 10.3666 7.76585 10.6361C8.04541 11.525 8.86064 12.1209 9.79138 12.1209C10.7221 12.1209 11.5373 11.5233 11.8169 10.6361C11.8623 10.4915 11.9633 10.3708 12.0976 10.3005C12.2319 10.2302 12.3886 10.216 12.5334 10.2611C12.833 10.3549 13.0021 10.6746 12.9083 10.9776V10.9793ZM12.9335 9.19146C12.9343 9.32847 12.8858 9.4612 12.7968 9.56541C12.7078 9.66962 12.5844 9.73836 12.4489 9.75907C12.3135 9.77978 12.1751 9.75109 12.0591 9.67823C11.943 9.60537 11.8571 9.4932 11.8169 9.36221C11.5373 8.47332 10.7221 7.87738 9.79138 7.87738C8.86064 7.87738 8.04541 8.47499 7.76585 9.36221C7.72003 9.50657 7.61902 9.62699 7.48482 9.69722C7.35063 9.76745 7.19412 9.78182 7.04938 9.73718C6.90476 9.69174 6.78406 9.59079 6.71376 9.45648C6.64347 9.32216 6.62932 9.16545 6.67441 9.02072C7.10295 7.65307 8.35677 6.73572 9.79138 6.73572C10.5463 6.73572 11.2477 6.99017 11.8119 7.43042C11.8772 7.18435 12.0998 7.00523 12.3626 7.00523C12.6773 7.00523 12.9335 7.26303 12.9335 7.57606V9.19314V9.19146Z" fill="#646464"/>
</g>
</g>
<defs>
<clipPath id="clip0_1338_60973">
<rect width="20" height="20" fill="white"/>
</clipPath>
</defs>
</svg>
