<svg width="20" height="20" viewBox="0 0 20 20" fill="none" xmlns="http://www.w3.org/2000/svg">
<g id="Frame">
<path id="Vector" d="M7.99998 13.45C7.99998 12.55 8.19998 11.7 8.59999 10.95C4.9 11.2 2 14.25 2 17.95H10.35C8.9 16.95 8 15.3 8 13.45H7.99998ZM8.99996 9.94997H9.24997C10.05 8.99996 11.15 8.34998 12.3499 8.09998C12.75 7.49997 12.95 6.74998 12.95 5.99998C12.95 3.8 11.15 2 8.94997 2C6.74998 2 4.94997 3.79999 4.94997 5.99998C4.99998 8.14997 6.79999 9.94997 8.99998 9.94997H8.99996ZM17.3499 13.5L17.25 13.45L17.1999 13.4C17.1999 13.4 17.3 13.35 17.3499 13.3C17.75 13.1 17.95 12.7 17.9 12.2999C17.85 11.8499 17.75 11.5 17.55 11.2C17.25 10.7 16.8 10.55 16.2 10.75C16.15 10.75 16.1 10.8 16.05 10.8V10.7C16.2 10.3 16.1 9.84996 15.8 9.49996C15.7 9.39996 15.5 9.19996 15.2 9.09996C14.95 8.99995 14.7 8.94996 14.5 8.94996C13.85 8.94996 13.6 9.49996 13.5 9.69995L13.45 9.64994C13.45 9.64994 13.45 9.59994 13.4 9.59994C13.4 9.54995 13.35 9.49994 13.35 9.44993C13.15 9.14993 12.85 8.94994 12.5 8.94994H12.3499C12.1 8.99993 11.85 8.99993 11.6 9.14992C10.9 9.49992 10.65 9.94992 10.8 10.6499V10.7499C10.75 10.7499 10.7 10.7499 10.65 10.6999C10.2 10.5499 9.79995 10.6999 9.49995 11.0499C9.34995 11.2499 9.19996 11.4999 9.14997 11.8499C8.94997 12.5499 9.14997 13.0499 9.79995 13.3499C9.79995 13.3499 9.74996 13.3999 9.69995 13.3999C9.29996 13.5499 9.09994 13.8999 9.04995 14.3499C9.04995 14.8999 9.19996 15.3999 9.59997 15.7499C9.84996 15.9999 10.15 16.0999 10.55 16.0499C10.6 16.0499 10.65 16.0499 10.7 15.9999H10.75V16.0499C10.6 16.4999 10.7 16.8999 11.05 17.2499C11.3 17.4999 11.6 17.6499 12 17.7499C12.2 17.7999 12.35 17.7999 12.45 17.7999C13.05 17.7999 13.35 17.2999 13.45 17.0999C13.45 17.0499 13.5 17.0499 13.5 17.0499L13.55 17.0999L13.6 17.1499C13.6 17.1999 13.65 17.2499 13.7 17.2999C13.95 17.6999 14.3 17.8499 14.75 17.7999C15.1 17.7499 15.4 17.6499 15.7 17.4499C16.2 17.0999 16.35 16.5999 16.15 16.0499H16.3C16.9 16.1999 17.35 15.9999 17.7 15.4499C17.85 15.1999 17.95 14.8999 18 14.5499C18 14.15 17.75 13.75 17.3499 13.5ZM16.2 13.55C16.25 13.85 16.4 14.15 16.7 14.3C16.75 14.3 16.75 14.35 16.8 14.35H16.85C16.95 14.4 16.95 14.4 16.95 14.5C16.95 14.7 16.9 14.8 16.8 14.95C16.7 15.1 16.65 15.1 16.6 15.1H16.4499C16.4 15.1 16.35 15.1 16.2999 15.05H16.25C15.7999 15 15.4499 15.15 15.2499 15.45C15.0499 15.75 15.0499 16.1 15.1499 16.45C15.1999 16.55 15.1999 16.55 15.0999 16.65C14.9499 16.75 14.7499 16.85 14.4999 16.85L14.4499 16.8C14.4499 16.8 14.4499 16.75 14.3999 16.7C14.3999 16.65 14.3499 16.65 14.3499 16.65C14.0999 16.2 13.6999 16.0999 13.4499 16.0999C13.2499 16.0999 12.8499 16.15 12.5499 16.65C12.4499 16.8 12.3999 16.8499 12.3999 16.8499C12.3499 16.8499 12.2999 16.8499 12.1999 16.8C11.9999 16.7499 11.7999 16.6499 11.6499 16.5V16.4499C11.6499 16.3999 11.6499 16.3999 11.6999 16.2999C11.7999 15.9999 11.7999 15.7 11.5999 15.4499C11.4499 15.1999 11.1499 15.0499 10.8499 15.0499H10.6999C10.5999 15.0499 10.4999 15.0499 10.3999 15.0999H10.2499C10.0499 14.8999 9.99989 14.6499 9.99989 14.3499C10.2499 14.25 10.3999 14.1 10.5499 13.8999C10.6999 13.65 10.7499 13.3999 10.6999 13.0999C10.6499 12.7999 10.4499 12.5499 10.1499 12.4C9.9499 12.2999 9.9499 12.2999 9.99989 12.05C10.0499 11.8499 10.0999 11.75 10.1999 11.65L10.2499 11.6H10.2999C10.5999 11.7 10.7999 11.7 10.9999 11.65C11.5499 11.5 11.8499 11 11.7499 10.3499C11.6999 10.1999 11.7499 10.15 11.7499 10.15C11.7499 10.15 11.7999 10.1 11.9999 9.99996C12.1499 9.94996 12.2499 9.89995 12.4499 9.89995L12.4999 9.94996C12.5499 9.99996 12.5499 10.05 12.5999 10.1C12.7999 10.4 13.1499 10.6 13.4999 10.6C13.8499 10.6 14.1999 10.4 14.3499 10.05C14.4499 9.84998 14.4999 9.84998 14.4999 9.84998C14.5999 9.84998 14.7999 9.94997 14.8999 9.94997C14.9999 9.99998 15.0499 10.05 15.1499 10.1C15.1999 10.15 15.1999 10.15 15.1999 10.2C15.0999 10.45 15.0999 10.7 15.1499 10.9C15.2499 11.4 15.7499 11.75 16.2999 11.65C16.3999 11.65 16.4999 11.6 16.5999 11.55C16.6499 11.55 16.6999 11.55 16.6999 11.5C16.6999 11.5 16.7499 11.5 16.7999 11.6C16.8999 11.75 16.9499 11.95 16.9999 12.2L16.8999 12.45C16.7999 12.5 16.6499 12.6 16.4999 12.75C16.25 12.95 16.15 13.25 16.2 13.55ZM13.5 11.45C12.4 11.45 11.5 12.35 11.5 13.45C11.5 14.55 12.4 15.45 13.5 15.45C14.6 15.45 15.5 14.55 15.5 13.45C15.5 12.35 14.6 11.45 13.5 11.45ZM13.5 14.45C12.95 14.45 12.5 14 12.5 13.45C12.5 12.9 12.95 12.45 13.5 12.45C14.05 12.45 14.5 12.9 14.5 13.4499C14.5 13.9999 14.05 14.45 13.5 14.45Z" fill="#646464"/>
</g>
</svg>
