<svg width="20" height="20" viewBox="0 0 20 20" fill="none" xmlns="http://www.w3.org/2000/svg">
<g id="Frame">
<path id="Vector" d="M10.9404 15.245C12.6358 13.8675 15.8146 10.8742 15.8146 8.30464C15.8146 4.83444 13.245 2 9.96027 2C6.6755 2 4 4.80795 4 8.30464C4 10.9007 7.28477 13.894 8.98013 15.245C7.09934 15.404 5.3245 15.9603 5.3245 16.596C5.3245 17.3642 7.76159 18 9.96027 18C12.1589 18 14.596 17.3642 14.596 16.596C14.596 15.9338 12.8212 15.3775 10.9404 15.245ZM7.97351 7.64238C7.97351 6.47682 8.87417 5.54967 9.96027 5.54967C11.0464 5.54967 11.947 6.50331 11.947 7.64238C11.947 8.80795 11.0464 9.7351 9.96027 9.7351C8.84768 9.7351 7.97351 8.80795 7.97351 7.64238ZM9.96027 16.596C8.50331 16.596 6.64901 16.2781 6.64901 15.8808C6.64901 15.5894 7.78808 15.3245 8.98013 15.2185C9.56291 15.6954 9.96027 15.9603 9.96027 15.9603C9.96027 15.9603 10.3576 15.6689 10.9404 15.2185C12.1325 15.3245 13.2715 15.5629 13.2715 15.8808C13.2715 16.2781 11.4172 16.596 9.96027 16.596Z" fill="#646464"/>
</g>
</svg>
