<svg width="20" height="20" viewBox="0 0 20 20" fill="none" xmlns="http://www.w3.org/2000/svg">
<g id="Frame">
<path id="Vector" d="M17.2002 11.5881H14.3325L12.4707 8.3734C12.8697 8.32908 13.1973 8.00723 13.1973 7.58323V2.80173C13.1973 2.35847 12.8388 2 12.3956 2H7.59865C7.15538 2 6.79692 2.35847 6.79692 2.80173V7.59672C6.79692 8.01879 7.12069 8.34257 7.5312 8.38689L5.68104 11.6015H2.80173C2.35847 11.6015 2 11.96 2 12.4033V17.1983C2 17.6415 2.35847 18 2.80173 18H7.59672C8.03999 18 8.39846 17.6415 8.39846 17.1983V15.5948H11.59V17.1983C11.59 17.6415 11.9484 18 12.3917 18H17.1828C17.6261 18 17.9846 17.6415 17.9846 17.1983V12.3898C17.9961 11.9542 17.6415 11.5881 17.2002 11.5881ZM8.40039 13.9875V12.3879C8.40039 11.9446 8.04192 11.5861 7.59865 11.5861H7.53505L9.37365 8.3946H10.6302L12.4804 11.5861H12.4052C11.9619 11.5861 11.6035 11.9446 11.6035 12.3879V13.9913H8.40039V13.9875Z" fill="#646464"/>
</g>
</svg>
