<svg width="20" height="20" viewBox="0 0 20 20" fill="none" xmlns="http://www.w3.org/2000/svg">
<g id="Frame">
<path id="Vector" d="M12.3333 2H4.68889C4.24444 2 3.84444 2.17778 3.53333 2.44444C3.17778 2.75556 3 3.15556 3 3.6V16.4C3 16.8444 3.17778 17.2444 3.48889 17.5556C3.8 17.8667 4.24444 18 4.64444 18H14.6444C15.0889 18 15.4889 17.8222 15.8 17.5556C16.1111 17.2444 16.2889 16.8444 16.2889 16.4V5.86667C16.2889 5.73333 16.2444 5.64444 16.1556 5.55556L12.6 2.13333C12.5556 2.04444 12.4222 2 12.3333 2ZM6.33333 10H11.3556C11.8 10 12.2 10.3556 12.2 10.8C12.2 11.2444 11.8444 11.6 11.3556 11.6H6.33333C5.88889 11.6 5.48889 11.2444 5.48889 10.8C5.48889 10.3556 5.88889 10 6.33333 10ZM13 14.8H6.33333C5.88889 14.8 5.48889 14.4444 5.48889 14C5.48889 13.5556 5.84444 13.2 6.33333 13.2H13C13.4444 13.2 13.8444 13.5556 13.8444 14C13.8 14.4444 13.4444 14.8 13 14.8ZM11.3111 6.26667V3.28889C11.3111 3.15556 11.4 3.06667 11.5333 3.06667C11.5778 3.06667 11.6667 3.06667 11.6667 3.11111L15.0889 6.4C15.1333 6.44444 15.1333 6.48889 15.1333 6.53333C15.1333 6.57778 15.0889 6.62222 15.0889 6.66667C15.0444 6.71111 15 6.71111 14.9556 6.71111H11.8889C11.6222 6.75556 11.3556 6.53333 11.3111 6.26667Z" fill="#646464"/>
</g>
</svg>
