<svg width="20" height="20" viewBox="0 0 20 20" fill="none" xmlns="http://www.w3.org/2000/svg">
<g id="Frame">
<g id="Group 18468">
<path id="Subtract" fill-rule="evenodd" clip-rule="evenodd" d="M9.93048 11.0748H6.03624C2.70363 11.0748 0 13.8228 0 17.2103V17.6057C0 18.9902 2.70186 18.9919 6.03624 18.9919H9.93048C11.2415 18.9919 12.4553 18.984 13.4454 18.8932C11.417 18.4574 9.89658 16.654 9.89658 14.4955C9.89658 13.2112 10.4348 12.0527 11.2981 11.2331C10.8586 11.1295 10.4008 11.0748 9.93048 11.0748ZM3.26704 5.6772C3.26704 8.26037 5.37862 10.3544 7.98337 10.3544C10.5881 10.3544 12.6996 8.26037 12.6996 5.6772C12.6996 3.09412 10.5881 1 7.98337 1C5.37864 1 3.26704 3.09412 3.26704 5.6772Z" fill="#646464"/>
<path id="Vector" d="M19.3959 12.1476C18.1599 10.0069 15.4281 9.26494 13.2795 10.487C11.8768 11.2846 11.0079 12.7725 11.0039 14.3854C11 15.9984 11.861 17.4903 13.2616 18.2957C14.6603 19.0992 16.3843 19.0913 17.775 18.2759C19.9077 17.026 20.6319 14.2882 19.3959 12.1476ZM17.1461 16.6035C17.1263 16.6094 17.1065 16.6094 17.0866 16.6094H13.9143C13.7933 16.6094 13.6921 16.538 13.6564 16.4289C13.6207 16.3197 13.6544 16.1967 13.7497 16.1352C13.7993 16.1035 13.8667 16.0817 13.9242 16.0817C14.45 16.0797 14.9757 16.0817 15.4995 16.0817H17.0846C17.2255 16.0817 17.3386 16.1809 17.3544 16.3158C17.3723 16.4487 17.283 16.5717 17.1461 16.6035ZM18.3325 13.2407C18.275 13.4232 18.1579 13.5304 17.9556 13.5304C17.9476 13.5502 17.9397 13.572 17.9357 13.5919L17.3465 15.6155C17.3207 15.7028 17.291 15.7266 17.2017 15.7266H13.8072C13.712 15.7266 13.6822 15.7047 13.6564 15.6155C13.4957 15.0679 13.337 14.5203 13.1783 13.9728C13.1346 13.824 13.091 13.6772 13.0474 13.5284C12.8966 13.5284 12.7835 13.4689 12.7121 13.3399C12.6942 13.3082 12.6843 13.2725 12.6704 13.2387V13.1157L12.6883 13.0641C12.7359 12.9253 12.8569 12.832 13.0057 12.8201C13.1406 12.8102 13.2775 12.8896 13.341 13.0145C13.4064 13.1415 13.3886 13.2923 13.2934 13.4034C13.2815 13.4153 13.2715 13.4272 13.2596 13.4431C13.5215 13.6038 13.7834 13.7625 14.0433 13.9232C14.1425 13.9847 14.2417 14.0442 14.3389 14.1037C14.3944 14.1374 14.4381 14.1275 14.4698 14.072C14.7694 13.5264 15.067 12.9808 15.3685 12.4313C15.2376 12.3658 15.1543 12.2646 15.1463 12.1138C15.1404 12.0087 15.1781 11.9194 15.2535 11.846C15.4023 11.7012 15.6443 11.7151 15.7733 11.8758C15.9221 12.0583 15.8685 12.2726 15.6324 12.4333C15.7098 12.5741 15.7871 12.717 15.8665 12.8578C16.0847 13.2526 16.299 13.6474 16.5172 14.0442C16.5668 14.1355 16.5986 14.1434 16.6878 14.0918C17.0231 13.8875 17.3584 13.6811 17.6957 13.4748C17.7115 13.4649 17.7254 13.455 17.7453 13.4451C17.6758 13.3756 17.6322 13.2963 17.6262 13.201C17.6163 13.0205 17.7413 12.8618 17.9159 12.832C18.0984 12.8003 18.267 12.9034 18.3206 13.08C18.3246 13.0939 18.3305 13.1078 18.3365 13.1217V13.2407H18.3325Z" fill="#646464"/>
</g>
</g>
</svg>
