<svg width="20" height="20" viewBox="0 0 20 20" fill="none" xmlns="http://www.w3.org/2000/svg">
<g id="Frame">
<g id="Group 18189">
<path id="Vector" d="M17.4702 11.3695C16.3844 9.48886 13.9844 8.83701 12.0968 9.91065C10.8646 10.6113 10.1012 11.9185 10.0977 13.3355C10.0942 14.7525 10.8506 16.0632 12.0811 16.7708C13.3099 17.4767 14.8245 17.4697 16.0463 16.7534C17.9199 15.6553 18.5561 13.2501 17.4702 11.3695ZM15.4938 15.2841C15.4763 15.2893 15.4589 15.2893 15.4415 15.2893H12.6545C12.5482 15.2893 12.4593 15.2266 12.428 15.1307C12.3966 15.0348 12.4262 14.9268 12.5099 14.8727C12.5534 14.8449 12.6127 14.8257 12.6632 14.8257C13.1251 14.8239 13.587 14.8257 14.0471 14.8257H15.4397C15.5635 14.8257 15.6628 14.9128 15.6768 15.0314C15.6924 15.1481 15.614 15.2562 15.4938 15.2841ZM16.536 12.3298C16.4855 12.4902 16.3826 12.5843 16.2049 12.5843C16.1979 12.6017 16.1909 12.6209 16.1874 12.6383L15.6698 14.4161C15.6471 14.4928 15.621 14.5137 15.5426 14.5137H12.5604C12.4768 14.5137 12.4506 14.4945 12.428 14.4161C12.2868 13.9351 12.1473 13.454 12.0079 12.973C11.9696 12.8422 11.9312 12.7133 11.8929 12.5825C11.7604 12.5825 11.6611 12.5303 11.5983 12.417C11.5826 12.3891 11.5739 12.3577 11.5617 12.3281V12.22L11.5774 12.1747C11.6192 12.0527 11.7256 11.9708 11.8563 11.9603C11.9748 11.9516 12.0951 12.0213 12.1508 12.1311C12.2083 12.2427 12.1927 12.3751 12.109 12.4727C12.0985 12.4832 12.0898 12.4937 12.0794 12.5076C12.3094 12.6488 12.5395 12.7882 12.7678 12.9294C12.855 12.9834 12.9421 13.0357 13.0275 13.088C13.0763 13.1176 13.1147 13.1089 13.1426 13.0601C13.4057 12.5808 13.6672 12.1015 13.9321 11.6187C13.8171 11.5612 13.7439 11.4723 13.7369 11.3398C13.7317 11.2475 13.7648 11.169 13.831 11.1046C13.9617 10.9773 14.1744 10.9895 14.2877 11.1307C14.4184 11.291 14.3713 11.4793 14.1639 11.6205C14.2319 11.7442 14.2999 11.8697 14.3696 11.9934C14.5613 12.3403 14.7495 12.6871 14.9412 13.0357C14.9848 13.1159 15.0127 13.1229 15.0911 13.0775C15.3857 12.898 15.6802 12.7168 15.9765 12.5355C15.9905 12.5268 16.0027 12.5181 16.0201 12.5093C15.9591 12.4483 15.9208 12.3786 15.9155 12.295C15.9068 12.1364 16.0166 11.9969 16.17 11.9708C16.3304 11.9429 16.4785 12.0335 16.5256 12.1886C16.529 12.2008 16.5343 12.213 16.5395 12.2253V12.3298H16.536Z" fill="#646464"/>
<path id="Vector_2" d="M3.94922 6.89369C3.94922 7.40501 4.04993 7.91133 4.24561 8.38374C4.44128 8.85614 4.72809 9.28538 5.08965 9.64694C5.45122 10.0085 5.88045 10.2953 6.35286 10.491C6.82526 10.6867 7.33158 10.7874 7.84291 10.7874C8.35423 10.7874 8.86055 10.6867 9.33295 10.491C9.80536 10.2953 10.2346 10.0085 10.5962 9.64694C10.9577 9.28538 11.2445 8.85614 11.4402 8.38374C11.6359 7.91133 11.7366 7.40501 11.7366 6.89369C11.7366 5.86102 11.3264 4.87064 10.5962 4.14043C9.86595 3.41023 8.87557 3 7.84291 3C6.81024 3 5.81986 3.41023 5.08965 4.14043C4.35945 4.87064 3.94922 5.86102 3.94922 6.89369Z" fill="#646464"/>
<path id="Vector_3" d="M11.4083 17.0706C10.1795 16.3194 9.42136 14.9233 9.42485 13.4157C9.42659 12.8213 9.54511 12.2462 9.76297 11.7216C9.15992 11.4985 8.5133 11.3765 7.84053 11.3765C4.61438 11.3765 2 14.1599 2 17.5935H12.8532C12.3512 17.5203 11.8614 17.346 11.4083 17.0706Z" fill="#646464"/>
</g>
</g>
</svg>
