<svg width="20" height="20" viewBox="0 0 20 20" fill="none" xmlns="http://www.w3.org/2000/svg">
<g id="Frame">
<path id="Vector" d="M6.20882 5.33757C6.20882 7.18088 7.70308 8.67513 9.54639 8.67513C11.3897 8.67513 12.884 7.18088 12.884 5.33757C12.884 3.49426 11.3897 2 9.54639 2C7.70308 2 6.20882 3.49426 6.20882 5.33757ZM10.9964 14.6917C10.9964 12.9017 11.9838 11.3579 13.434 10.5277C12.2848 9.85356 10.9775 9.49599 9.64521 9.49144C5.45003 9.49144 2.05258 12.8241 2 16.9516H11.5866C11.2042 16.2594 11.0012 15.4825 10.9964 14.6917ZM17.5432 14.7002C17.8002 14.7168 18 14.9301 18 15.1874C18 15.4447 17.8002 15.658 17.5432 15.6746H15.9729V16.5828C15.9563 16.8396 15.7432 17.0394 15.4857 17.0394C15.2281 17.0394 15.015 16.8396 14.9984 16.5828V15.6726H13.4281C13.1713 15.656 12.9713 15.4428 12.9713 15.1854C12.9713 14.9281 13.1711 14.7148 13.4281 14.6982H14.9984V14.0361H13.4281C13.1713 14.0195 12.9713 13.8064 12.9713 13.5489C12.9713 13.2915 13.1711 13.0782 13.4281 13.0616H14.6251L13.5613 11.9989C13.3714 11.8089 13.3714 11.5012 13.5613 11.3112C13.7513 11.1215 14.059 11.1215 14.2487 11.3112L15.4855 12.5479L16.7222 11.3112C16.9121 11.1215 17.2199 11.1215 17.4096 11.3112C17.5996 11.5012 17.5996 11.8089 17.4096 11.9989L16.346 13.0628H17.543C17.8 13.0794 17.9998 13.2925 17.9998 13.55C17.9998 13.8074 17.8 14.0207 17.543 14.0373H15.9727V14.6994L17.5432 14.7002Z" fill="#646464"/>
</g>
</svg>
