<svg width="20" height="20" viewBox="0 0 20 20" fill="none" xmlns="http://www.w3.org/2000/svg">
<g id="Frame">
<g id="Group 18468">
<path id="Subtract" fill-rule="evenodd" clip-rule="evenodd" d="M10.0353 11.1811H6.09995C2.73217 11.1811 0 13.9581 0 17.3814V17.7809C0 19.18 2.73037 19.1818 6.09995 19.1818H10.0353C11.3606 19.1818 12.5876 19.1738 13.5883 19.0819C11.5375 18.6424 10 16.8195 10 14.6374C10 13.3397 10.5438 12.169 11.416 11.3408C10.9723 11.2363 10.5101 11.1811 10.0353 11.1811ZM3.30153 5.72657C3.30153 8.337 5.43539 10.4531 8.06763 10.4531C10.6999 10.4531 12.8337 8.337 12.8337 5.72657C12.8337 3.11622 10.6999 1 8.06763 1C5.43541 1 3.30153 3.11622 3.30153 5.72657Z" fill="#646464"/>
<g id="Group 18466">
<circle id="Ellipse 128" cx="15.4517" cy="14.6392" r="4.54545" fill="#646464"/>
<path id="&#228;&#190;&#155;" d="M13.9939 12.1055L14.5437 12.2603C14.3731 12.6474 14.1582 13.0455 13.9181 13.4104V17.1649H13.343V14.2011C13.1723 14.4057 12.9954 14.5937 12.8184 14.7596C12.7615 14.6324 12.5909 14.3559 12.4961 14.2343C13.0902 13.7201 13.6526 12.9183 13.9939 12.1055ZM15.3906 15.7272L15.9468 15.8821C15.6371 16.3631 15.1504 16.8442 14.7207 17.1538C14.6133 17.0598 14.3857 16.905 14.253 16.8276C14.6954 16.5566 15.1252 16.1364 15.3906 15.7272ZM16.7873 15.965L17.2613 15.7383C17.6721 16.0922 18.1271 16.5677 18.3483 16.8939L17.8554 17.1704C17.6468 16.8331 17.1981 16.3299 16.7873 15.965ZM15.8204 13.7145V14.9586H16.9074V13.7145H15.8204ZM17.4825 14.9586H18.4052V15.4618H14.3352V14.9586H15.2452V13.7145H14.4869V13.2224H15.2452V12.1497H15.8204V13.2224H16.9074V12.1386H17.4825V13.2224H18.342V13.7145H17.4825V14.9586Z" fill="white"/>
</g>
</g>
</g>
</svg>
