<svg width="20" height="20" viewBox="0 0 20 20" fill="none" xmlns="http://www.w3.org/2000/svg">
<g id="Frame">
<path id="Vector" d="M10.2813 5.57982C6.868 5.57982 4.10096 8.36006 4.10096 11.7898C4.10096 15.2196 6.86782 18 10.2813 18C13.6947 18 16.4614 15.2196 16.4614 11.79C16.4614 8.36042 13.6944 5.57982 10.2813 5.57982ZM13.4591 11.2361L12.2405 12.4296L12.5281 14.1153C12.6247 14.6809 12.3031 14.9284 11.7876 14.656L10.2813 13.8599L8.77499 14.6556C8.26929 14.9228 7.93583 14.6923 8.0344 14.1149L8.32206 12.4293L7.10344 11.2358C6.6943 10.835 6.81028 10.445 7.38634 10.3609L9.07035 10.1148L9.82321 8.58194C10.0761 8.06708 10.4808 8.05701 10.7393 8.58194L11.4926 10.1152L13.1762 10.3612C13.7414 10.4437 13.8761 10.8275 13.4591 11.2361ZM16.4108 2.6979C16.4668 2.62486 16.498 2.53592 16.5001 2.44395C16.5002 2.38583 16.4889 2.32824 16.4668 2.27449C16.4447 2.22074 16.4122 2.17187 16.3712 2.13068C16.3302 2.08949 16.2815 2.05678 16.2278 2.03442C16.1741 2.01206 16.1166 2.00049 16.0585 2.00037H12.2372C12.0311 2.00037 11.8656 2.14548 11.8171 2.3375L10.6391 4.67103C10.6391 4.67103 13.1614 4.82348 14.6517 6.26508L16.4108 2.6979ZM9.85986 4.67103L8.68265 2.33713C8.63409 2.14511 8.46882 2 8.2627 2H4.44139C4.38328 2.00014 4.32577 2.01173 4.27214 2.0341C4.21851 2.05647 4.16981 2.08919 4.12882 2.13038C4.08784 2.17157 4.05537 2.22043 4.03326 2.27417C4.01116 2.32791 3.99986 2.38548 4 2.44358C4.00183 2.5355 4.03275 2.62447 4.08832 2.69772L5.84726 6.26508C7.33815 4.82366 9.85986 4.67103 9.85986 4.67103Z" fill="#646464"/>
</g>
</svg>
