<svg width="20" height="20" viewBox="0 0 20 20" fill="none" xmlns="http://www.w3.org/2000/svg">
<g id="Frame">
<path id="Vector" d="M7.69812 13.5308C7.69492 12.9909 7.78118 12.4574 7.95368 11.9463C8.11341 11.4383 8.353 10.9623 8.66607 10.5311C8.97914 10.1254 9.3497 9.76757 9.7618 9.46728C10.1867 9.13504 10.6563 8.8667 11.1546 8.66864L11.2409 8.40349L11.3144 8.20223L11.3687 8.02014C11.4709 7.9882 11.5667 7.93389 11.6466 7.86041C11.7328 7.78055 11.8063 7.68791 11.8606 7.58249C11.9373 7.43234 11.9788 7.26942 11.9884 7.1033C12.014 6.97552 12.014 6.84774 11.9884 6.71996C11.966 6.63051 11.9341 6.54426 11.8926 6.46439C11.8542 6.38772 11.7935 6.32064 11.7233 6.27272C11.7041 5.89257 11.6626 5.50922 11.5955 5.13546C11.5444 4.77447 11.4613 4.41988 11.3495 4.07167C11.2409 3.71069 11.062 3.37526 10.8288 3.08136C10.6946 2.9376 10.5413 2.80982 10.372 2.70759C10.1675 2.56384 9.94389 2.44884 9.71388 2.35619C9.45512 2.25397 9.18678 2.17091 8.91524 2.11021C8.63732 2.04632 8.34981 2.01438 8.06549 2.01438C7.8259 1.99521 7.58311 1.99521 7.34352 2.01438C7.08796 2.05271 6.83878 2.1166 6.59919 2.20605C6.34682 2.30827 6.10723 2.43925 5.8868 2.59898C5.64082 2.77787 5.4204 2.99191 5.23831 3.23789C5.02651 3.51715 4.87132 3.83511 4.78149 4.1739C4.68246 4.49335 4.61218 4.82239 4.56745 5.15143C4.53231 5.50603 4.51314 5.86062 4.51314 6.21522C4.43009 6.29828 4.36619 6.39411 4.32147 6.50273C4.27355 6.61454 4.2448 6.73274 4.23522 6.85413C4.22883 7.01705 4.25438 7.17997 4.30869 7.33331C4.35022 7.4611 4.41092 7.58568 4.49078 7.6943C4.54509 7.77097 4.60898 7.83805 4.68246 7.89556C4.74954 7.93708 4.81982 7.96903 4.89649 7.99139L5.04663 8.42905C5.09455 8.56002 5.15206 8.6878 5.21595 8.81239C5.26706 8.91781 5.33734 9.01365 5.42998 9.09032C5.59929 9.22769 5.75902 9.35547 5.8868 9.48325C6.03695 9.61103 6.1232 9.79632 6.13278 9.99438V10.4097C6.13278 10.5311 6.10723 10.6493 6.05931 10.7611C5.99542 10.8889 5.91236 11.0071 5.81333 11.1125C5.66957 11.2498 5.50665 11.368 5.33415 11.4639C5.14886 11.5757 4.95399 11.6651 4.74954 11.729L4.07868 11.9367L3.40783 12.1283C3.20018 12.1954 2.99892 12.2849 2.81364 12.3935C2.64433 12.4989 2.49418 12.6331 2.3664 12.7864C2.23223 12.9525 2.14917 13.1506 2.12042 13.3614C2.01181 13.8534 1.97667 14.3581 2.015 14.8629C2.06931 15.2558 2.16514 15.489 2.26098 15.5657C2.39515 15.6392 2.5453 15.6871 2.69864 15.7031L3.5388 15.8404L4.60259 15.9778L5.81652 16.0832L6.99851 16.1695H8.40411C8.16772 15.7765 7.97924 15.3548 7.85146 14.914C7.73006 14.4636 7.67895 13.9972 7.69812 13.5308ZM13.7199 13.1282L13.5825 13.7544H14.231L14.3684 13.3806V12.7545H13.9754L13.7199 13.1282ZM17.6012 11.8089C17.1029 10.7355 16.2052 9.89535 15.0999 9.46728C14.5217 9.23088 13.9051 9.10949 13.2822 9.11588C12.6561 9.10949 12.0331 9.23088 11.4517 9.46728C10.9023 9.69409 10.3975 10.0167 9.96306 10.4256C9.53818 10.8282 9.19956 11.3073 8.96316 11.8408C8.46481 12.9366 8.46481 14.192 8.96316 15.2878C9.20595 15.8181 9.54457 16.2972 9.96306 16.7029C10.3943 17.1119 10.8991 17.4345 11.4517 17.6485C12.0363 17.8817 12.6625 18.0031 13.2918 17.9999C13.9147 17.9999 14.5345 17.8817 15.1095 17.6485C15.6621 17.4313 16.1669 17.1087 16.5982 16.7029C17.0198 16.3004 17.3617 15.8213 17.598 15.2878C18.0964 14.192 18.0964 12.9366 17.598 11.8408V11.8089H17.6012ZM10.6531 16.064C10.8735 15.2973 11.046 14.5147 11.1642 13.7224C11.0237 13.9077 10.8767 14.0866 10.717 14.2559V13.1378C11.3112 12.5372 11.768 11.8089 12.0459 11.0102L12.8957 11.2435C12.6688 11.7354 12.4069 12.2082 12.1098 12.6586C12.0235 13.5946 11.6626 16.0097 11.6626 16.0097L10.6531 16.064ZM14.8348 16.064C14.445 16.0481 14.1415 15.719 14.1543 15.3325C14.1671 14.9427 14.4866 14.6361 14.8763 14.6393C15.266 14.6457 15.5791 14.9619 15.5791 15.3517C15.5759 15.5561 15.4896 15.7478 15.3363 15.8851C15.183 16.0193 14.9817 16.0864 14.7804 16.064H14.8348ZM15.8985 12.6267H15.3044L15.1031 13.7224H15.8474L15.7101 14.3486H14.1575C13.6719 15.0162 13.0522 15.5753 12.3398 15.9874L11.8191 15.3612C12.2791 15.0482 12.7104 14.6904 13.1065 14.2974H12.0427L12.2248 13.7224H12.8733L13.0234 12.6586H12.4931L12.6625 11.9878H13.1959L13.3333 11.1157H14.1192L13.9818 11.9878H14.6527L14.79 11.1157H15.5759L15.4385 11.9878H16.1094L15.8985 12.6267Z" fill="#646464"/>
</g>
</svg>
