<svg width="20" height="20" viewBox="0 0 20 20" fill="none" xmlns="http://www.w3.org/2000/svg">
<g id="Frame">
<path id="Vector" d="M5.78558 3.14493V4.57453C5.7864 4.87757 5.90715 5.16797 6.12144 5.38226C6.33572 5.59654 6.62612 5.71729 6.92917 5.71812H12.6427C12.9457 5.71729 13.2361 5.59654 13.4504 5.38226C13.6647 5.16797 13.7854 4.87757 13.7862 4.57453V3.14493H14.8584C15.7999 3.14493 16.5718 3.9155 16.5718 4.85831V8.54296L16.5687 12.1718V16.2866C16.5687 17.2281 15.7981 18 14.8549 18H4.71338C4.25936 17.9987 3.82431 17.8178 3.50327 17.4967C3.18223 17.1757 3.0013 16.7406 3 16.2866V4.85875C3 3.91729 3.77013 3.14537 4.71338 3.14537H5.78558V3.14493ZM13.2129 13.5385H6.35715C6.2055 13.5385 6.06006 13.5988 5.95283 13.706C5.8456 13.8132 5.78535 13.9587 5.78535 14.1103C5.78535 14.262 5.8456 14.4074 5.95283 14.5146C6.06006 14.6219 6.2055 14.6821 6.35715 14.6821H13.2142C13.3658 14.6818 13.511 14.6214 13.6182 14.5143C13.7253 14.4072 13.7858 14.2621 13.7862 14.1105C13.7858 13.9587 13.7252 13.8133 13.6177 13.7061C13.5102 13.5989 13.3647 13.5386 13.2129 13.5385ZM13.2129 10.8587H6.35715C6.2055 10.8587 6.06006 10.9189 5.95283 11.0262C5.8456 11.1334 5.78535 11.2788 5.78535 11.4305C5.78535 11.5821 5.8456 11.7276 5.95283 11.8348C6.06006 11.942 6.2055 12.0023 6.35715 12.0023H13.2142C13.3658 12.0019 13.5111 11.9416 13.6183 11.8344C13.7255 11.7272 13.7859 11.5819 13.7862 11.4303L13.7831 11.3723C13.7682 11.2314 13.7018 11.1009 13.5965 11.0061C13.4912 10.9113 13.3546 10.8588 13.2129 10.8587ZM13.2129 8.17842H6.35715C6.2055 8.17842 6.06006 8.23866 5.95283 8.3459C5.8456 8.45313 5.78535 8.59857 5.78535 8.75022C5.78535 8.90187 5.8456 9.0473 5.95283 9.15454C6.06006 9.26177 6.2055 9.32201 6.35715 9.32201H13.2142C13.3658 9.32166 13.5111 9.26128 13.6183 9.15408C13.7255 9.04688 13.7859 8.90159 13.7862 8.74999L13.7831 8.69199C13.7681 8.55117 13.7016 8.42086 13.5964 8.32613C13.4911 8.23141 13.3545 8.17895 13.2129 8.17887V8.17842ZM11.4995 2C11.815 2.00089 12.0706 2.25656 12.0711 2.57157V3.14359H12.9291V4.28718C12.9285 4.43863 12.868 4.58369 12.7609 4.69069C12.6537 4.7977 12.5085 4.85795 12.3571 4.85831H7.21473C7.06336 4.85784 6.91832 4.79753 6.81124 4.69053C6.70417 4.58354 6.64375 4.43855 6.64316 4.28718V3.14359H7.50029V2.57113C7.50088 2.4196 7.56143 2.27448 7.6687 2.16746C7.77596 2.06044 7.92123 2.00023 8.07276 2H11.4995Z" fill="#646464"/>
</g>
</svg>
