<svg width="20" height="20" viewBox="0 0 20 20" fill="none" xmlns="http://www.w3.org/2000/svg">
<g id="Frame">
<g id="Frame_2" clip-path="url(#clip0_1669_18601)">
<path id="Vector" d="M17.7104 13.7754H17.0905C17.04 13.5917 16.9669 13.4151 16.8729 13.2495L17.31 12.8124C17.3372 12.7852 17.3587 12.7531 17.3734 12.7176C17.3881 12.6822 17.3956 12.6442 17.3956 12.6059C17.3956 12.5675 17.3881 12.5295 17.3734 12.4941C17.3587 12.4587 17.3372 12.4265 17.31 12.3994L16.835 11.9244C16.7803 11.8698 16.7061 11.8391 16.6287 11.8391C16.5514 11.8391 16.4772 11.8698 16.4224 11.9244L15.9853 12.3615C15.8202 12.2676 15.644 12.1947 15.4609 12.1442V11.5285C15.4606 11.4512 15.4298 11.3771 15.3751 11.3224C15.3204 11.2677 15.2463 11.2369 15.169 11.2366H14.4979C14.4206 11.2368 14.3464 11.2676 14.2917 11.3223C14.237 11.377 14.2062 11.4511 14.206 11.5285V12.1465C14.0227 12.1968 13.8465 12.2698 13.6812 12.3637L13.2445 11.9266C13.1896 11.872 13.1154 11.8413 13.038 11.8413C12.9606 11.8413 12.8864 11.872 12.8315 11.9266L12.3565 12.4016C12.3019 12.4565 12.2712 12.5307 12.2712 12.6081C12.2712 12.6855 12.3019 12.7597 12.3565 12.8146L12.7936 13.2513C12.6997 13.4166 12.6267 13.5928 12.5764 13.7761H11.9599C11.8827 13.7762 11.8088 13.8068 11.7541 13.8612C11.6994 13.9156 11.6685 13.9894 11.668 14.0665V14.7376C11.6682 14.815 11.699 14.8891 11.7537 14.9438C11.8084 14.9985 11.8825 15.0293 11.9599 15.0295H12.5775C12.6282 15.2126 12.7013 15.3887 12.7951 15.5539L12.358 15.991C12.3034 16.0458 12.2728 16.12 12.2728 16.1973C12.2728 16.2747 12.3034 16.3489 12.358 16.4036L12.833 16.8786C12.8601 16.9058 12.8923 16.9273 12.9277 16.942C12.9632 16.9567 13.0011 16.9642 13.0395 16.9642C13.0778 16.9642 13.1158 16.9567 13.1513 16.942C13.1867 16.9273 13.2189 16.9058 13.246 16.8786L13.6827 16.4434C13.848 16.5373 14.0243 16.6104 14.2075 16.661V17.2775C14.2077 17.3548 14.2385 17.4289 14.2932 17.4836C14.3479 17.5382 14.4221 17.5689 14.4994 17.569H15.1705C15.2478 17.5688 15.3218 17.5381 15.3764 17.4834C15.4311 17.4288 15.4618 17.3548 15.462 17.2775V16.6592C15.6451 16.6089 15.8213 16.5365 15.9868 16.4434L16.4235 16.8801C16.4507 16.9073 16.4828 16.9288 16.5183 16.9435C16.5537 16.9581 16.5917 16.9657 16.63 16.9657C16.6684 16.9657 16.7064 16.9581 16.7418 16.9435C16.7772 16.9288 16.8094 16.9073 16.8365 16.8801L17.3115 16.4051C17.3661 16.3503 17.3968 16.2762 17.3968 16.1988C17.3968 16.1215 17.3661 16.0473 17.3115 15.9925L16.8744 15.5554C16.9683 15.3902 17.0414 15.2141 17.092 15.031H17.7104C17.7877 15.0307 17.8617 14.9999 17.9163 14.9452C17.971 14.8905 18.0017 14.8164 18.0019 14.7391V14.0665C18.0016 13.9893 17.9708 13.9154 17.9162 13.8608C17.8616 13.8063 17.7876 13.7756 17.7104 13.7754ZM14.8359 15.6865C14.5819 15.6865 14.3337 15.6112 14.1226 15.4701C13.9115 15.3291 13.7469 15.1285 13.6497 14.8939C13.5526 14.6593 13.5271 14.4012 13.5767 14.1522C13.6262 13.9031 13.7485 13.6743 13.928 13.4948C14.1076 13.3152 14.3364 13.193 14.5854 13.1434C14.8345 13.0939 15.0926 13.1193 15.3272 13.2165C15.5618 13.3137 15.7623 13.4782 15.9034 13.6893C16.0445 13.9005 16.1198 14.1487 16.1198 14.4026C16.1198 14.5714 16.0865 14.7385 16.0218 14.8944C15.9572 15.0503 15.8625 15.1919 15.7431 15.3111C15.6236 15.4304 15.4819 15.5249 15.3259 15.5893C15.1699 15.6537 15.0028 15.6867 14.834 15.6865H14.8359Z" fill="#646464"/>
<path id="Vector_2" d="M14.1916 14.4026C14.1895 14.4882 14.2046 14.5733 14.2359 14.653C14.2673 14.7327 14.3142 14.8053 14.3741 14.8666C14.4339 14.9278 14.5053 14.9765 14.5842 15.0098C14.6631 15.043 14.7479 15.0601 14.8335 15.0601C14.9192 15.0601 15.0039 15.043 15.0828 15.0098C15.1617 14.9765 15.2332 14.9278 15.293 14.8666C15.3528 14.8053 15.3998 14.7327 15.4311 14.653C15.4624 14.5733 15.4775 14.4882 15.4755 14.4026C15.4714 14.235 15.402 14.0756 15.2821 13.9585C15.1621 13.8414 15.0012 13.7759 14.8335 13.7759C14.6659 13.7759 14.5049 13.8414 14.385 13.9585C14.265 14.0756 14.1956 14.235 14.1916 14.4026Z" fill="#646464"/>
<path id="Vector_3" d="M15.2584 2.73926H13.9957C13.9957 2.37419 13.6474 2.10791 13.2882 2.10791H2.65031C2.4764 2.10948 2.31022 2.18003 2.18828 2.30405C2.06635 2.42807 1.99864 2.59543 2.00002 2.76935V15.9067C2.00002 15.9067 2.69117 17.8917 3.82946 17.8917H13.117C12.3678 17.5595 11.7451 16.9954 11.3407 16.2825H3.94273C3.94273 16.2825 3.27164 16.056 3.27164 15.6007L11.0388 15.5966L11.0417 15.6029C10.9188 15.2265 10.8562 14.8331 10.856 14.4371C10.8562 13.555 11.1658 12.7009 11.7308 12.0236C12.2958 11.3462 13.0805 10.8884 13.9482 10.73L13.9853 3.71638H14.6167L14.6271 10.6679C15.0577 10.6689 15.4849 10.7443 15.8898 10.8908V3.47238C15.8898 3.47238 15.7862 2.73926 15.2584 2.73926Z" fill="#646464"/>
<path id="Vector_4" d="M7.56301 17.42L7.42969 17.153C7.45988 17.2457 7.49932 17.3352 7.54742 17.42H7.56301ZM8.57281 15.2374L8.83872 15.2133C8.74954 15.2133 8.66054 15.2214 8.57281 15.2374Z" fill="white"/>
</g>
</g>
<defs>
<clipPath id="clip0_1669_18601">
<rect width="16" height="16" fill="white" transform="translate(2 2)"/>
</clipPath>
</defs>
</svg>
