<svg width="20" height="20" viewBox="0 0 20 20" fill="none" xmlns="http://www.w3.org/2000/svg">
<g id="Frame">
<g id="Group 18192">
<path id="Vector" d="M9.32128 13.6559C9.32128 10.931 11.0958 8.63279 13.5492 7.83763C13.6656 7.79884 13.7819 7.76006 13.8983 7.73096C14.3444 7.6146 14.8098 7.54672 15.285 7.53702C15.3141 7.48854 15.3238 7.44005 15.3238 7.38187V3.61941C15.3238 2.72728 14.5965 2 13.7044 2H3.61941C2.72728 2 2 2.72728 2 3.61941V15.7407C2 16.6329 2.72728 17.3601 3.61941 17.3601H10.388C10.4364 17.3601 10.4849 17.3408 10.5237 17.302C9.76735 16.2838 9.32128 15.0232 9.32128 13.6559ZM5.03518 5.23882H11.9007C12.2401 5.23882 12.5116 5.51034 12.5116 5.84973C12.5116 6.18913 12.2401 6.46065 11.9007 6.46065H5.03518C4.69578 6.46065 4.42427 6.18913 4.42427 5.84973C4.43396 5.51034 4.70548 5.23882 5.03518 5.23882ZM8.67158 11.2995H5.03518C4.69578 11.2995 4.42427 11.028 4.42427 10.6886C4.42427 10.3492 4.69578 10.0777 5.03518 10.0777H8.67158C9.01098 10.0777 9.28249 10.3492 9.28249 10.6886C9.28249 11.028 9.01098 11.2995 8.67158 11.2995ZM8.67158 8.87522H5.03518C4.69578 8.87522 4.42427 8.6037 4.42427 8.2643C4.42427 7.9249 4.69578 7.65339 5.03518 7.65339H8.67158C9.01098 7.65339 9.28249 7.9249 9.28249 8.2643C9.28249 8.6037 9.01098 8.87522 8.67158 8.87522Z" fill="#646464"/>
<path id="Vector_2" d="M14.0423 9.43774C11.8702 9.43774 10.0859 11.222 10.0859 13.3941C10.0859 15.5663 11.8702 17.3505 14.0423 17.3505C16.2145 17.3505 17.9987 15.5663 17.9987 13.3941C17.9987 11.222 16.2242 9.43774 14.0423 9.43774ZM10.8811 13.4038C10.8811 11.6584 12.3066 10.2329 14.052 10.2329C14.7599 10.2329 15.4387 10.4656 15.9914 10.902L11.5599 15.3336C11.1138 14.7808 10.8811 14.1117 10.8811 13.4038ZM14.0423 16.5651C13.3345 16.5651 12.6557 16.3324 12.1029 15.896L16.5345 11.4644C16.9709 12.0172 17.2036 12.696 17.2036 13.4038C17.2133 15.1396 15.7878 16.5651 14.0423 16.5651Z" fill="#646464"/>
</g>
</g>
</svg>
