<svg width="20" height="20" viewBox="0 0 20 20" fill="none" xmlns="http://www.w3.org/2000/svg">
<g id="Frame">
<path id="Vector" d="M8.49133 11.3033V10.3613L5.802 9.278L2 10.8013V15.854L5.81267 18L9.6 15.8467V14.944L6.77667 11.3033H8.49133ZM8.49133 7.294C8.49133 7.15133 8.60533 7.036 8.74667 7.036H11.2553C11.3967 7.036 11.5107 7.15133 11.5107 7.294V9.534L13.602 8.628V3.52867L9.8 2L6 3.52333V8.63533L8.49133 9.702V7.294ZM14.2 9.278L11.5087 10.358V11.3033H13.222L10.4 14.944V15.854L14.2127 18L18 15.8467V10.8067L14.2 9.278Z" fill="#646464"/>
</g>
</svg>
