<svg width="20" height="20" viewBox="0 0 20 20" fill="none" xmlns="http://www.w3.org/2000/svg">
<g id="Frame">
<path id="Vector" d="M8.28601 3C10.4947 3 12.286 4.82799 12.286 7.08332C12.2883 7.73885 12.1335 8.3854 11.8346 8.96882C11.5357 9.55225 11.1014 10.0556 10.568 10.4366C12.9113 11.3686 14.5713 13.6946 14.5713 16.4166C14.5721 16.4924 14.558 16.5677 14.5297 16.638C14.5014 16.7084 14.4595 16.7724 14.4065 16.8266C14.3534 16.8808 14.2902 16.924 14.2205 16.9537C14.1507 16.9835 14.0758 16.9992 14 16.9999H2.57136C2.49555 16.9992 2.42062 16.9835 2.35088 16.9537C2.28113 16.924 2.21793 16.8808 2.16488 16.8266C2.11182 16.7724 2.06996 16.7084 2.04167 16.638C2.01339 16.5677 1.99924 16.4924 2.00003 16.4166C2.00003 13.6946 3.66002 11.3686 6.00335 10.436C5.46987 10.055 5.03552 9.55171 4.73671 8.96825C4.4379 8.38478 4.28335 7.73817 4.28602 7.08265C4.28602 4.82799 6.07668 3 8.28601 3ZM11.714 3C13.9233 3 15.714 4.82799 15.714 7.08332C15.7164 7.73879 15.5617 8.3853 15.2629 8.96872C14.9641 9.55214 14.5299 10.0555 13.9967 10.4366C16.34 11.3686 18 13.6946 18 16.4166C18.0008 16.4924 17.9866 16.5677 17.9583 16.638C17.93 16.7084 17.8882 16.7724 17.8351 16.8266C17.7821 16.8808 17.7189 16.924 17.6491 16.9537C17.5794 16.9835 17.5045 16.9992 17.4286 16.9999H15.6926C15.7066 16.8073 15.714 16.6133 15.714 16.4166C15.714 13.81 14.426 11.51 12.464 10.1453C13.0944 9.24892 13.4314 8.17916 13.4287 7.08332C13.4314 6.30503 13.262 5.53575 12.9328 4.83054C12.6035 4.12533 12.1224 3.50161 11.524 3.004C11.5867 3.00133 11.6507 3 11.714 3Z" fill="#646464"/>
</g>
</svg>
